<svg width="60" height="60" viewBox="0 0 60 60" fill="none" xmlns="http://www.w3.org/2000/svg">
<path d="M1.66659 19.9998L6.66659 19.9998C6.90641 20.0097 7.1451 19.9618 7.36262 19.8603C7.58013 19.7588 7.7701 19.6066 7.91659 19.4164L21.9166 3.91644C22.272 3.56145 22.748 3.35321 23.2499 3.33311L38.3333 3.33311C38.7753 3.33311 39.1992 3.50871 39.5118 3.82127C39.8243 4.13383 39.9999 4.55775 39.9999 4.99978C39.9999 5.44181 39.8243 5.86573 39.5118 6.17829C39.1992 6.49085 38.7753 6.66645 38.3333 6.66645L28.3333 6.66645C28.0734 6.65956 27.8158 6.71677 27.5832 6.83305C27.3507 6.94932 27.1504 7.12106 26.9999 7.33312L24.1666 11.3331C23.2961 11.5471 22.4936 11.977 21.8333 12.5831L15.7499 19.0831C15.5934 19.2371 15.4707 19.422 15.3895 19.626C15.3083 19.83 15.2704 20.0487 15.2782 20.2681C15.286 20.4875 15.3394 20.703 15.435 20.9006C15.5305 21.0983 15.6662 21.274 15.8333 21.4164C16.1556 21.711 16.5806 21.8672 17.0169 21.8516C17.4533 21.836 17.8661 21.6499 18.1666 21.3331L24.2499 14.9164C24.3982 14.7548 24.5785 14.6257 24.7794 14.5374C24.9802 14.4491 25.1972 14.4035 25.4166 14.4035C25.636 14.4035 25.853 14.4491 26.0538 14.5374C26.2546 14.6257 26.4349 14.7548 26.5833 14.9164C26.894 15.242 27.0674 15.6747 27.0674 16.1248C27.0674 16.5748 26.894 17.0076 26.5833 17.3331L18.0833 26.1664C17.9411 26.3348 17.7616 26.4676 17.5591 26.5544C17.3565 26.6412 17.1365 26.6796 16.9166 26.6664L1.66659 26.6664C1.22456 26.6664 0.800633 26.842 0.488076 27.1546C0.175514 27.4672 -7.99242e-05 27.8911 -7.99629e-05 28.3331C-8.00015e-05 28.7751 0.175514 29.1991 0.488075 29.5116C0.800632 29.8242 1.22456 29.9998 1.66659 29.9998L16.9166 29.9998C17.5851 30.0112 18.2488 29.8838 18.8656 29.6256C19.4824 29.3674 20.0389 28.9841 20.4999 28.4998L28.9166 19.6664C29.3929 19.2078 29.7719 18.6577 30.0307 18.0491C30.2895 17.4406 30.4229 16.7861 30.4229 16.1248C30.4229 15.4635 30.2895 14.809 30.0307 14.2004C29.7719 13.5919 29.3929 13.0418 28.9166 12.5831C28.6198 12.2878 28.2832 12.0354 27.9166 11.8331L29.1666 9.99978L38.3333 9.99978C39.6593 9.99978 40.9311 9.47299 41.8688 8.53531C42.8065 7.59763 43.3333 6.32586 43.3333 4.99978C43.3333 3.6737 42.8065 2.40193 41.8688 1.46425C40.9311 0.526567 39.6593 -0.000219666 38.3333 -0.000219782L23.2499 -0.000221101C22.523 0.000427334 21.8047 0.156977 21.1434 0.458866C20.4821 0.760754 19.8933 1.20095 19.4166 1.74978L5.91659 16.6664L1.66659 16.6664C1.22456 16.6664 0.800634 16.842 0.488076 17.1546C0.175515 17.4672 -7.905e-05 17.8911 -7.90886e-05 18.3331C-7.91273e-05 18.7751 0.175515 19.1991 0.488076 19.5116C0.800633 19.8242 1.22456 19.9998 1.66659 19.9998Z" fill="#E2BE50"/>
<path d="M31.0833 47.4167C31.3802 47.712 31.7167 47.9644 32.0833 48.1667L30.8333 50L21.6667 50C20.3406 50 19.0688 50.5268 18.1311 51.4645C17.1935 52.4021 16.6667 53.6739 16.6667 55C16.6667 56.3261 17.1935 57.5978 18.1311 58.5355C19.0688 59.4732 20.3406 60 21.6667 60L36.75 60C37.4769 59.9994 38.1953 59.8428 38.8565 59.5409C39.5178 59.239 40.1067 58.7988 40.5833 58.25L54.0833 43.3333L58.3333 43.3333C58.7754 43.3333 59.1993 43.1577 59.5118 42.8452C59.8244 42.5326 60 42.1087 60 41.6667C60 41.2246 59.8244 40.8007 59.5118 40.4882C59.1993 40.1756 58.7754 40 58.3333 40L53.3333 40C53.0935 39.9901 52.8548 40.0379 52.6373 40.1395C52.4198 40.241 52.2298 40.3932 52.0833 40.5833L38.0833 56.0833C37.7279 56.4383 37.2519 56.6466 36.75 56.6667L21.6667 56.6667C21.2246 56.6667 20.8007 56.4911 20.4882 56.1785C20.1756 55.8659 20 55.442 20 55C20 54.558 20.1756 54.134 20.4882 53.8215C20.8007 53.5089 21.2246 53.3333 21.6667 53.3333L31.6667 53.3333C31.9277 53.3481 32.1881 53.2943 32.422 53.1774C32.6559 53.0604 32.8551 52.8844 33 52.6667L35.8333 48.6667C36.7038 48.4527 37.5063 48.0228 38.1667 47.4167L44.25 40.9167C44.4065 40.7626 44.5292 40.5778 44.6105 40.3738C44.6917 40.1698 44.7296 39.9511 44.7217 39.7317C44.7139 39.5122 44.6605 39.2968 44.5649 39.0991C44.4694 38.9014 44.3338 38.7258 44.1667 38.5833C43.8443 38.2888 43.4193 38.1326 42.983 38.1481C42.5466 38.1637 42.1338 38.3499 41.8333 38.6667L35.75 45.0833C35.6017 45.245 35.4214 45.3741 35.2206 45.4623C35.0197 45.5506 34.8027 45.5962 34.5833 45.5962C34.3639 45.5962 34.147 45.5506 33.9461 45.4623C33.7453 45.3741 33.565 45.245 33.4167 45.0833C33.1059 44.7578 32.9325 44.325 32.9325 43.875C32.9325 43.425 33.1059 42.9922 33.4167 42.6667L41.8333 33.8333C41.9955 33.6676 42.1904 33.5376 42.4056 33.4515C42.6208 33.3654 42.8517 33.3252 43.0833 33.3333L58.3333 33.3333C58.7754 33.3333 59.1993 33.1577 59.5118 32.8452C59.8244 32.5326 60 32.1087 60 31.6667C60 31.2246 59.8244 30.8007 59.5118 30.4882C59.1993 30.1756 58.7754 30 58.3333 30L43.0833 30C42.4148 29.9886 41.7511 30.116 41.1343 30.3742C40.5176 30.6323 39.961 31.0157 39.5 31.5L31.0833 40.3333C30.607 40.792 30.228 41.3421 29.9692 41.9506C29.7104 42.5592 29.577 43.2137 29.577 43.875C29.577 44.5363 29.7104 45.1908 29.9692 45.7993C30.228 46.4079 30.607 46.958 31.0833 47.4167Z" fill="#3CB68A"/>
</svg>
