<svg width="60" height="60" viewBox="0 0 60 60" fill="none" xmlns="http://www.w3.org/2000/svg">
<rect width="60" height="60" rx="10" fill="#3CB68A"/>
<g clip-path="url(#clip0)">
<path d="M41.3333 45.9999H25.3333C23.496 45.9999 22 44.5053 22 42.6666V22.6666C22 20.8279 23.496 19.3333 25.3333 19.3333H41.3333C43.1707 19.3333 44.6667 20.8279 44.6667 22.6666V42.6666C44.6667 44.5053 43.1707 45.9999 41.3333 45.9999ZM25.3333 20.6666C24.2307 20.6666 23.3333 21.5639 23.3333 22.6666V42.6666C23.3333 43.7693 24.2307 44.6666 25.3333 44.6666H41.3333C42.436 44.6666 43.3333 43.7693 43.3333 42.6666V22.6666C43.3333 21.5639 42.436 20.6666 41.3333 20.6666H25.3333Z" fill="white"/>
<path d="M20.0007 42H18.6673C16.83 42 15.334 40.5053 15.334 38.6667V17.3333C15.334 15.4947 16.83 14 18.6673 14H34.6673C36.5047 14 38.0007 15.4947 38.0007 17.3333C38.0007 17.7013 37.702 18 37.334 18C36.966 18 36.6673 17.7013 36.6673 17.3333C36.6673 16.2307 35.77 15.3333 34.6673 15.3333H18.6673C17.5647 15.3333 16.6673 16.2307 16.6673 17.3333V38.6667C16.6673 39.7693 17.5647 40.6667 18.6673 40.6667H20.0007C20.3687 40.6667 20.6673 40.9653 20.6673 41.3333C20.6673 41.7013 20.3687 42 20.0007 42Z" fill="white"/>
<path d="M38.6673 36.6666H28.0007C27.6327 36.6666 27.334 36.3679 27.334 35.9999C27.334 35.6319 27.6327 35.3333 28.0007 35.3333H38.6673C39.0353 35.3333 39.334 35.6319 39.334 35.9999C39.334 36.3679 39.0353 36.6666 38.6673 36.6666Z" fill="white"/>
<path d="M38.6673 42.0001H28.0007C27.6327 42.0001 27.334 41.7014 27.334 41.3334C27.334 40.9654 27.6327 40.6667 28.0007 40.6667H38.6673C39.0353 40.6667 39.334 40.9654 39.334 41.3334C39.334 41.7014 39.0353 42.0001 38.6673 42.0001Z" fill="white"/>
<path d="M38.6673 31.3333H28.0007C27.6327 31.3333 27.334 31.0347 27.334 30.6667C27.334 30.2987 27.6327 30 28.0007 30H38.6673C39.0353 30 39.334 30.2987 39.334 30.6667C39.334 31.0347 39.0353 31.3333 38.6673 31.3333Z" fill="white"/>
<path d="M38.6673 26.0001H28.0007C27.6327 26.0001 27.334 25.7014 27.334 25.3334C27.334 24.9654 27.6327 24.6667 28.0007 24.6667H38.6673C39.0353 24.6667 39.334 24.9654 39.334 25.3334C39.334 25.7014 39.0353 26.0001 38.6673 26.0001Z" fill="white"/>
</g>
<defs>
<clipPath id="clip0">
<rect width="32" height="32" fill="white" transform="translate(14 14)"/>
</clipPath>
</defs>
</svg>
