<svg width="60" height="60" viewBox="0 0 60 60" fill="none" xmlns="http://www.w3.org/2000/svg">
<g clip-path="url(#clip0)">
<path d="M9.39837 59.933L23.6093 55.8831C23.2537 55.7812 6.09228 50.8718 7.14837 51.174V58.2456C7.14837 58.808 7.39446 59.3003 7.8515 59.6517C8.35025 60.0396 8.83775 60.0453 9.39837 59.933Z" fill="#3CB68A"/>
<path d="M52.1484 59.6517C52.6054 59.3002 52.8515 58.8079 52.8515 58.2455V51.1743C52.4958 51.276 35.3341 56.1851 36.3903 55.883L50.6015 59.9329C51.1534 60.0434 51.6441 60.0441 52.1484 59.6517Z" fill="#3CB68A"/>
<path d="M47.4967 1.51798L47.4968 1.51795C47.6633 1.46245 47.8359 1.5866 47.8359 1.76262V1.79669V1.83097V1.86547V1.9002V1.93513V1.97029V2.00566V2.04125V2.07704V2.11306V2.14928V2.18572V2.22236V2.25922V2.29629V2.33356V2.37104V2.40872V2.44662V2.48471V2.52301V2.56151V2.60022V2.63912V2.67823V2.71753V2.75703V2.79673V2.83663V2.87672V2.91701V2.95749V2.99817V3.03904V3.0801V3.12134V3.16278V3.20441V3.24623V3.28823V3.33042V3.3728V3.41536V3.45811V3.50103V3.54414V3.58743V3.6309V3.67456V3.71838V3.76239V3.80658V3.85094V3.89547V3.94018V3.98506V4.03012V4.07535V4.12075V4.16631V4.21205V4.25796V4.30403V4.35027V4.39668V4.44325V4.48998V4.53688V4.58394V4.63116V4.67855V4.72609V4.77379V4.82165V4.86967V4.91784V4.96617V5.01465V5.06329V5.11207V5.16102V5.21011V5.25935V5.30874V5.35828V5.40797V5.45781V5.50779V5.55792V5.60819V5.6586V5.70916V5.75985V5.81069V5.86167V5.91279V5.96405V6.01544V6.06697V6.11864V6.17044V6.22237V6.27444V6.32664V6.37897V6.43143V6.48403V6.53675V6.58959V6.64257V6.69567V6.7489V6.80225V6.85573V6.90932V6.96304V7.01688V7.07085V7.12493V7.17912V7.23344V7.28787V7.34242V7.39709V7.45187V7.50676V7.56176V7.61688V7.6721V7.72744V7.78289V7.83844V7.8941V7.94987V8.00574V8.06172V8.1178V8.17398V8.23027V8.28666V8.34315V8.39973V8.45642V8.51321V8.57009V8.62706V8.68414V8.7413V8.79857V8.85592V8.91336V8.9709V9.02853V9.08624V9.14405V9.20194V9.25992V9.31798V9.37613V9.43436V9.49268V9.55108V9.60956V9.66812V9.72676V9.78548V9.84428V9.90315V9.9621V10.0211V10.0802V10.1394V10.1987V10.258V10.3174V10.3768V10.4364V10.496V10.5556V10.6154V10.6752V10.735V10.795V10.8549V10.915V10.9751V11.0353V11.0955V11.1558V11.2162V11.2766V11.3371V11.3976V11.4582V11.5188V11.5795V11.6402V11.701V11.7619V11.8228V11.8837V11.9447V12.0057V12.0668V12.1279V12.1891V12.2503V12.3116V12.3729V12.4342V12.4956V12.557V12.6185V12.68V12.7415V12.8031V12.8647V12.9263V12.988V13.0497V13.1115V13.1732V13.235V13.2968V13.3587V13.4206V13.4825V13.5444V13.6064V13.6684V13.7304V13.7924V13.8545V13.9165V13.9786V14.0407V14.1028V14.165V14.2271V14.2893V14.3515V14.4137V14.4759V14.5382V14.6004V14.6626V14.7249V14.7872V14.8494V14.9117V14.974V15.0363V15.0986V15.1609V15.2232V15.2855V15.3478V15.4101V15.4724V15.5347V15.597V15.6593V15.7216V15.7839V15.8462V15.9084V15.9707V16.0329V16.0952V16.1574V16.2197V16.2819V16.3441V16.4062V16.4684V16.5306V16.5927V16.6548V16.7169V16.779V16.8411V16.9031V16.9651V17.0271V17.0891V17.1511V17.213V17.2749V17.3367V17.3986V17.4604V17.5222V17.584V17.6457V17.7074V17.769V17.8307V17.8923V17.9538V18.0153V18.0768V18.1383V18.1997V18.261V18.3224V18.3836V18.4449V18.5061V18.5672V18.6283V18.6894V18.7504V18.8114V18.8723V18.9332V18.994V19.0548V19.1155V19.1762V19.2368V19.2974V19.3579V19.4183V19.4787V19.539V19.5993V19.6595V19.7197V19.7798V19.8398V19.8998V19.9597V20.0195V20.0793V20.139V20.1987V20.2582V20.3177V20.3772V20.4365V20.4958V20.5551V20.6142V20.6733V20.7323V20.7912V20.85V20.9088V20.9675V21.0261V21.0846V21.1431V21.2015V21.2597V21.3179V21.3761V21.4341V21.492V21.5499V21.6077V21.6654V21.723V21.7805V21.8379V21.8952V21.9524V22.0095V22.0666V22.1235V22.1804V22.2371V22.2938V22.3503V22.4068V22.4631V22.5194V22.5755V22.6316V22.6875V22.7433V22.7991V22.8547V22.9102V22.9656V23.0209V23.0761V23.1312V23.1861V23.241V23.2957V23.3503V23.4048V23.4592V23.5135V23.5676V23.6217V23.6756V23.7294V23.7831V23.8366V23.8901V23.9434V23.9965V24.0496V24.1025V24.1553V24.208V24.2605V24.313V24.3652V24.4174V24.4694V24.5213V24.573V24.6247V24.6761V24.7275V24.7787V24.8298V24.8807V24.9315V24.9821V25.0326V25.083V25.1332V25.1833V25.2332V25.283V25.3326V25.3821V25.4314V25.4806V25.5297V25.5785V25.6273V25.6758V25.7243V25.7725V25.8207V25.8686V25.9164V25.9641V26.0115V26.0589V26.106V26.153V26.1999V26.2465V26.293V26.3394V26.3856V26.4316V26.4774V26.5231V26.5686V26.6139V26.6591V26.7041V26.7489V26.7936V26.838V26.8823V26.9264V26.9704V27.0142V27.0577V27.1011V27.1444V27.1874V27.2303V27.2729V27.3154V27.3577V27.3999V27.4418V27.4835V27.5251V27.5665V27.6077V27.6486V27.6894V27.73V27.7704V27.773L35.6404 31.8372C34.7969 32.1183 34.0011 32.4815 33.2578 32.9137V6.26347L47.4967 1.51798Z" stroke="#E2BE50" stroke-width="3"/>
<path d="M12.5032 1.51796L12.5033 1.51798L26.7422 6.26348V6.26414V6.30377V6.34356V6.3835V6.42358V6.46382V6.50421V6.54474V6.58543V6.62627V6.66725V6.70838V6.74966V6.79108V6.83265V6.87437V6.91624V6.95825V7.0004V7.0427V7.08515V7.12774V7.17047V7.21335V7.25636V7.29953V7.34283V7.38627V7.42986V7.47359V7.51746V7.56147V7.60562V7.6499V7.69433V7.7389V7.7836V7.82844V7.87343V7.91854V7.9638V8.00919V8.05472V8.10038V8.14618V8.19211V8.23818V8.28438V8.33071V8.37718V8.42379V8.47052V8.51739V8.56439V8.61152V8.65878V8.70617V8.7537V8.80135V8.84913V8.89704V8.94508V8.99325V9.04155V9.08998V9.13853V9.18721V9.23601V9.28495V9.334V9.38319V9.4325V9.48193V9.53149V9.58117V9.63097V9.6809V9.73096V9.78113V9.83142V9.88184V9.93238V9.98304V10.0338V10.0847V10.1357V10.1869V10.2381V10.2895V10.341V10.3926V10.4444V10.4962V10.5482V10.6002V10.6524V10.7048V10.7572V10.8097V10.8624V10.9151V10.968V11.021V11.0741V11.1274V11.1807V11.2341V11.2877V11.3414V11.3951V11.449V11.503V11.5571V11.6114V11.6657V11.7201V11.7747V11.8293V11.8841V11.9389V11.9939V12.049V12.1042V12.1595V12.2149V12.2704V12.326V12.3817V12.4375V12.4934V12.5494V12.6055V12.6617V12.7181V12.7745V12.831V12.8876V12.9443V13.0012V13.0581V13.1151V13.1722V13.2294V13.2868V13.3442V13.4017V13.4593V13.517V13.5748V13.6327V13.6907V13.7487V13.8069V13.8652V13.9235V13.982V14.0406V14.0992V14.1579V14.2168V14.2757V14.3347V14.3938V14.453V14.5122V14.5716V14.6311V14.6906V14.7502V14.81V14.8698V14.9297V14.9896V15.0497V15.1099V15.1701V15.2304V15.2908V15.3513V15.4119V15.4726V15.5333V15.5941V15.655V15.716V15.7771V15.8383V15.8995V15.9608V16.0222V16.0837V16.1452V16.2069V16.2686V16.3304V16.3922V16.4542V16.5162V16.5783V16.6405V16.7027V16.7651V16.8275V16.8899V16.9525V17.0151V17.0778V17.1406V17.2034V17.2664V17.3294V17.3924V17.4556V17.5188V17.582V17.6454V17.7088V17.7723V17.8358V17.8995V17.9632V18.0269V18.0907V18.1546V18.2186V18.2826V18.3467V18.4109V18.4751V18.5394V18.6038V18.6682V18.7327V18.7972V18.8618V18.9265V18.9912V19.056V19.1209V19.1858V19.2508V19.3158V19.3809V19.4461V19.5113V19.5766V19.6419V19.7073V19.7728V19.8383V19.9038V19.9695V20.0351V20.1009V20.1667V20.2325V20.2984V20.3644V20.4304V20.4964V20.5625V20.6287V20.6949V20.7612V20.8275V20.8939V20.9603V21.0268V21.0933V21.1599V21.2265V21.2932V21.3599V21.4267V21.4935V21.5604V21.6273V21.6943V21.7613V21.8283V21.8954V21.9626V22.0298V22.097V22.1643V22.2316V22.2989V22.3664V22.4338V22.5013V22.5688V22.6364V22.704V22.7717V22.8394V22.9071V22.9749V23.0427V23.1105V23.1784V23.2464V23.3143V23.3823V23.4504V23.5185V23.5866V23.6547V23.7229V23.7911V23.8594V23.9277V23.996V24.0643V24.1327V24.2011V24.2696V24.3381V24.4066V24.4751V24.5437V24.6123V24.681V24.7496V24.8183V24.8871V24.9558V25.0246V25.0934V25.1622V25.2311V25.3V25.3689V25.4379V25.5068V25.5758V25.6448V25.7139V25.7829V25.852V25.9211V25.9903V26.0594V26.1286V26.1978V26.267V26.3363V26.4055V26.4748V26.5441V26.6134V26.6828V26.7521V26.8215V26.8909V26.9603V27.0297V27.0992V27.1687V27.2381V27.3076V27.3771V27.4467V27.5162V27.5858V27.6553V27.7249V27.7945V27.8641V27.9337V28.0033V28.073V28.1426V28.2123V28.2819V28.3516V28.4213V28.491V28.5607V28.6304V28.7002V28.7699V28.8396V28.9094V28.9791V29.0489V29.1186V29.1884V29.2582V29.328V29.3977V29.4675V29.5373V29.6071V29.6769V29.7467V29.8165V29.8863V29.9561V30.0259V30.0957V30.1655V30.2353V30.3051V30.3749V30.4447V30.5145V30.5843V30.6541V30.7238V30.7936V30.8634V30.9332V31.003V31.0727V31.1425V31.2122V31.282V31.3517V31.4214V31.4912V31.5609V31.6306V31.7003V31.77V31.8397V31.9093V31.979V32.0487V32.1183V32.1879V32.2576V32.3272V32.3968V32.4663V32.5359V32.6055V32.675V32.7445V32.8141V32.8836V32.9149C25.999 32.4829 25.2033 32.1199 24.3598 31.8392C24.3595 31.8391 24.3593 31.839 24.3591 31.8389L12.1641 27.7734V1.76263C12.1641 1.58656 12.3367 1.46243 12.5032 1.51796Z" stroke="#E2BE50" stroke-width="3"/>
<path d="M57.6094 7.13999L52.8516 8.8978V37.1518C52.8516 37.9089 52.3675 38.5801 51.6499 38.8187L30.5562 45.85C30.3759 45.9101 30.1871 45.9409 30 45.9409C29.8129 45.9409 29.6241 45.91 29.4438 45.85L8.35008 38.8187C7.63254 38.58 7.14844 37.9089 7.14844 37.1518V8.8978L2.39062 7.13999C1.82824 6.92905 1.23035 7.03464 0.77332 7.35093C0.281367 7.66745 0 8.22984 0 8.79245V44.1831C0 44.9564 0.527461 45.6595 1.26562 45.8705C2.10832 46.1099 1.59586 45.9623 1.36781 45.8966C2.03145 46.0867 6.96656 47.468 29.9975 54.0613C30.0326 54.052 30.0879 54.0375 29.9975 54.0613C29.9984 54.0615 29.9993 54.0618 30.0001 54.0619C32.9275 53.2205 32.2168 53.4605 58.7345 45.8703C59.4727 45.6594 60.0001 44.9563 60.0001 44.183V8.79234C60.0001 8.22972 59.7188 7.66734 59.2268 7.35081C58.7696 7.03464 58.1718 6.92905 57.6094 7.13999ZM1.32281 45.8838C1.26926 45.8684 1.25801 45.8651 1.32281 45.8838V45.8838Z" fill="#3CB68A"/>
<path d="M29.9975 54.0615C29.9975 54.0615 29.9943 54.0626 29.9975 54.0615V54.0615Z" fill="#3CB68A"/>
<path d="M10.6641 35.885L27.8081 41.6002C27.018 39.2824 25.1926 37.4022 22.773 36.5974L10.6641 32.5591V35.885Z" fill="#E2BE50"/>
<path d="M32.1919 41.6005L49.336 35.8852V32.5591L37.227 36.596C34.8074 37.4021 32.982 39.2824 32.1919 41.6005Z" fill="#E2BE50"/>
</g>
<defs>
<clipPath id="clip0">
<rect width="60" height="60" fill="white"/>
</clipPath>
</defs>
</svg>
