<svg width="136" height="136" viewBox="0 0 136 136" fill="none" xmlns="http://www.w3.org/2000/svg">
<circle cx="68" cy="68" r="63" stroke="white" stroke-width="10"/>
<mask id="path-3-outside-1" maskUnits="userSpaceOnUse" x="45" y="41" width="54" height="54" fill="black">
<rect fill="white" x="45" y="41" width="54" height="54"/>
<path fill-rule="evenodd" clip-rule="evenodd" d="M58.7249 44.07L90.9499 60.395C95.7249 62.82 96.4249 66.12 96.4249 67.82C96.4249 69.52 95.7249 72.62 90.9499 75.12L58.7249 91.395C57.3663 92.1084 55.8593 92.4937 54.3249 92.52C53.0224 92.5387 51.7407 92.1923 50.6249 91.52C48.1763 89.8383 46.8055 86.9823 47.0249 84.02V51.57C46.795 48.6056 48.1682 45.7447 50.6249 44.07C53.1365 42.6433 56.2134 42.6433 58.7249 44.07ZM56.475 86.8699L88.675 70.5449C90.375 69.6699 91.425 68.5699 91.425 67.6949C91.425 66.8199 90.375 65.7199 88.675 64.8699L56.375 48.5449C55.7147 48.1805 54.9786 47.9751 54.225 47.9449C53.8744 47.9546 53.5313 48.049 53.225 48.2199C52.324 49.0036 51.8738 50.1854 52.025 51.3699V84.0199C51.8738 85.2045 52.324 86.3862 53.225 87.1699C54.2901 87.6211 55.5105 87.5084 56.475 86.8699Z"/>
</mask>
<path fill-rule="evenodd" clip-rule="evenodd" d="M58.7249 44.07L90.9499 60.395C95.7249 62.82 96.4249 66.12 96.4249 67.82C96.4249 69.52 95.7249 72.62 90.9499 75.12L58.7249 91.395C57.3663 92.1084 55.8593 92.4937 54.3249 92.52C53.0224 92.5387 51.7407 92.1923 50.6249 91.52C48.1763 89.8383 46.8055 86.9823 47.0249 84.02V51.57C46.795 48.6056 48.1682 45.7447 50.6249 44.07C53.1365 42.6433 56.2134 42.6433 58.7249 44.07ZM56.475 86.8699L88.675 70.5449C90.375 69.6699 91.425 68.5699 91.425 67.6949C91.425 66.8199 90.375 65.7199 88.675 64.8699L56.375 48.5449C55.7147 48.1805 54.9786 47.9751 54.225 47.9449C53.8744 47.9546 53.5313 48.049 53.225 48.2199C52.324 49.0036 51.8738 50.1854 52.025 51.3699V84.0199C51.8738 85.2045 52.324 86.3862 53.225 87.1699C54.2901 87.6211 55.5105 87.5084 56.475 86.8699Z" fill="white"/>
<path d="M90.9499 60.395L91.8556 58.6117L91.8538 58.6108L90.9499 60.395ZM58.7249 44.07L57.7371 45.809L57.7786 45.8325L57.8211 45.8541L58.7249 44.07ZM90.9499 75.12L91.8516 76.9052L91.8646 76.8986L91.8776 76.8918L90.9499 75.12ZM58.7249 91.395L57.8233 89.6097L57.8091 89.6169L57.7951 89.6243L58.7249 91.395ZM54.3249 92.52L54.3537 94.5198L54.3591 94.5197L54.3249 92.52ZM50.6249 91.52L49.4927 93.1686L49.5417 93.2023L49.5927 93.233L50.6249 91.52ZM47.0249 84.02L49.0195 84.1677L49.0249 84.0939V84.02H47.0249ZM47.0249 51.57H49.0249V51.4925L49.0189 51.4153L47.0249 51.57ZM50.6249 44.07L49.6371 42.3309L49.566 42.3713L49.4984 42.4174L50.6249 44.07ZM88.675 70.5449L89.5794 72.3288L89.5903 72.3232L88.675 70.5449ZM56.475 86.8699L55.5706 85.0861L55.4675 85.1384L55.371 85.2022L56.475 86.8699ZM88.675 64.8699L87.7728 66.6549L87.7806 66.6588L88.675 64.8699ZM56.375 48.5449L55.4085 50.2959L55.4404 50.3135L55.4728 50.3299L56.375 48.5449ZM54.225 47.9449L54.3049 45.9465L54.2373 45.9438L54.1698 45.9457L54.225 47.9449ZM53.225 48.2199L52.2502 46.4736L52.069 46.5747L51.9124 46.7109L53.225 48.2199ZM52.025 51.3699H54.025V51.2428L54.0089 51.1167L52.025 51.3699ZM52.025 84.0199L54.0089 84.2732L54.025 84.1471V84.0199H52.025ZM53.225 87.1699L51.9124 88.679L52.1523 88.8876L52.4449 89.0115L53.225 87.1699ZM91.8538 58.6108L59.6288 42.2858L57.8211 45.8541L90.0461 62.1791L91.8538 58.6108ZM98.4249 67.82C98.4249 66.6963 98.1926 65.0857 97.2113 63.3814C96.2237 61.6661 94.5479 59.979 91.8556 58.6117L90.0443 62.1782C92.127 63.2359 93.1887 64.4114 93.7448 65.3773C94.3073 66.3542 94.4249 67.2436 94.4249 67.82H98.4249ZM91.8776 76.8918C94.5379 75.499 96.2069 73.8599 97.1978 72.191C98.1883 70.5228 98.4249 68.9535 98.4249 67.82H94.4249C94.4249 68.3864 94.3116 69.2171 93.7584 70.1489C93.2055 71.08 92.137 72.2409 90.0223 73.3481L91.8776 76.8918ZM59.6266 93.1802L91.8516 76.9052L90.0483 73.3347L57.8233 89.6097L59.6266 93.1802ZM54.3591 94.5197C56.2059 94.4881 58.0195 94.0244 59.6548 93.1657L57.7951 89.6243C56.713 90.1925 55.5128 90.4994 54.2908 90.5202L54.3591 94.5197ZM49.5927 93.233C51.0284 94.0981 52.6777 94.5438 54.3537 94.5197L54.2962 90.5202C53.3672 90.5335 52.453 90.2864 51.6571 89.8069L49.5927 93.233ZM45.0304 83.8722C44.7583 87.5441 46.4575 91.0841 49.4927 93.1686L51.7572 89.8713C49.8951 88.5924 48.8526 86.4206 49.0195 84.1677L45.0304 83.8722ZM45.0249 51.57V84.02H49.0249V51.57H45.0249ZM49.4984 42.4174C46.4497 44.4957 44.7456 48.046 45.0309 51.7246L49.0189 51.4153C48.8444 49.1652 49.8867 46.9937 51.7515 45.7225L49.4984 42.4174ZM59.7127 42.3309C56.5886 40.5564 52.7613 40.5564 49.6371 42.3309L51.6127 45.809C53.5117 44.7303 55.8382 44.7303 57.7371 45.809L59.7127 42.3309ZM87.7706 68.7611L55.5706 85.0861L57.3794 88.6538L89.5794 72.3288L87.7706 68.7611ZM89.425 67.6949C89.425 67.3696 89.5801 67.3863 89.2462 67.7334C88.9626 68.0281 88.471 68.4006 87.7597 68.7667L89.5903 72.3232C90.579 71.8143 91.4624 71.1993 92.1288 70.5065C92.7449 69.8661 93.425 68.8953 93.425 67.6949H89.425ZM87.7806 66.6588C88.4845 67.0108 88.971 67.3754 89.2506 67.6642C89.5802 68.0047 89.425 68.0208 89.425 67.6949H93.425C93.425 66.4941 92.7448 65.5227 92.1244 64.8819C91.4541 64.1895 90.5655 63.5791 89.5694 63.0811L87.7806 66.6588ZM55.4728 50.3299L87.7728 66.6549L89.5772 63.085L57.2772 46.76L55.4728 50.3299ZM54.1451 49.9433C54.5879 49.961 55.0205 50.0818 55.4085 50.2959L57.3415 46.794C56.4089 46.2792 55.3692 45.9891 54.3049 45.9465L54.1451 49.9433ZM54.1998 49.9663C54.2244 49.9525 54.252 49.945 54.2803 49.9442L54.1698 45.9457C53.4967 45.9643 52.8381 46.1454 52.2502 46.4736L54.1998 49.9663ZM54.0089 51.1167C53.9423 50.5949 54.1406 50.0742 54.5376 49.729L51.9124 46.7109C50.5074 47.933 49.8053 49.776 50.0411 51.6232L54.0089 51.1167ZM54.025 84.0199V51.3699H50.025V84.0199H54.025ZM54.5376 85.6609C54.1406 85.3157 53.9423 84.795 54.0089 84.2732L50.0411 83.7667C49.8053 85.6139 50.5074 87.4568 51.9124 88.679L54.5376 85.6609ZM55.371 85.2022C54.9656 85.4706 54.4527 85.5179 54.0051 85.3283L52.4449 89.0115C54.1275 89.7242 56.0553 89.5463 57.579 88.5376L55.371 85.2022Z" fill="white" mask="url(#path-3-outside-1)"/>
</svg>
