<svg width="64" height="64" viewBox="0 0 64 64" fill="none" xmlns="http://www.w3.org/2000/svg">
<path d="M62.1669 8.75045C61.2254 7.80732 59.6978 7.8057 58.7563 8.74645L29.8197 37.6067L19.3794 26.2676C18.4773 25.2883 16.952 25.2248 15.9712 26.1268C14.991 27.0289 14.9283 28.5549 15.8304 29.5351L27.9712 42.7202C28.4158 43.2034 29.038 43.4841 29.6942 43.4977C29.7118 43.4984 29.7288 43.4984 29.7457 43.4984C30.3833 43.4984 30.9967 43.2452 31.4485 42.7949L62.1622 12.1618C63.106 11.2212 63.1077 9.69357 62.1669 8.75045Z" fill="#3CB68A"/>
<path d="M61.5879 29.5879C60.2556 29.5879 59.1759 30.6676 59.1759 32C59.1759 46.9854 46.9854 59.1759 32 59.1759C17.0155 59.1759 4.82412 46.9854 4.82412 32C4.82412 17.0155 17.0155 4.82412 32 4.82412C33.3322 4.82412 34.4121 3.74438 34.4121 2.41213C34.4121 1.07975 33.3322 0 32 0C14.355 0 0 14.355 0 32C0 49.6442 14.355 64 32 64C49.6442 64 64 49.6442 64 32C64 30.6677 62.9202 29.5879 61.5879 29.5879Z" fill="#3CB68A"/>
</svg>
