<svg width="59" height="62" viewBox="0 0 59 62" fill="none" xmlns="http://www.w3.org/2000/svg">
<path d="M46.1855 41.1453V41.1453L46.1908 19.2238C46.1908 19.2237 46.1908 19.2237 46.1908 19.2237C46.1908 18.4267 45.542 17.7779 44.7449 17.7779C43.9479 17.7779 43.299 18.4267 43.299 19.2238V41.1453C43.299 41.769 42.7935 42.2744 42.17 42.2744C41.5465 42.2744 41.041 41.769 41.041 41.1453V21.7807C41.041 20.9836 40.3921 20.3348 39.5951 20.3348C38.798 20.3348 38.1492 20.9836 38.1492 21.7807C38.1492 21.7807 38.1492 21.7807 38.1492 21.7807L38.1498 41.1453C38.1498 41.769 37.6442 42.2744 37.0207 42.2744C36.3972 42.2744 35.8917 41.769 35.8917 41.1453V27.7743L35.8915 27.7719C35.8913 27.768 35.8911 27.7623 35.8911 27.7556C35.8911 26.9585 35.2423 26.3097 34.4452 26.3097C33.6481 26.3097 32.9993 26.9585 32.9993 27.7556V30.3542C32.9993 30.9777 32.4938 31.4832 31.8703 31.4832C31.2468 31.4832 30.7412 30.9777 30.7412 30.3542V27.7556C30.7412 25.7129 32.4025 24.0516 34.4451 24.0516C34.9576 24.0516 35.4464 24.1564 35.891 24.3455V21.7807C35.891 19.7381 37.5523 18.0768 39.5948 18.0768C40.1421 18.0768 40.6625 18.1963 41.1308 18.4105C41.5024 16.7579 42.9813 15.52 44.7447 15.52C46.5082 15.52 47.9869 16.7579 48.3586 18.4104C48.8269 18.1962 49.3472 18.0768 49.8945 18.0768C51.937 18.0768 53.5983 19.7381 53.5983 21.7807V30.4357C54.0429 30.2465 54.5318 30.1418 55.0442 30.1418C57.0868 30.1418 58.7481 31.8031 58.7481 33.8458V45.2201C58.7481 47.4923 57.9805 49.7309 56.5863 51.525L55.285 53.1997C54.1975 54.5991 53.5983 56.3465 53.5983 58.1188V60.1207C53.5983 60.7443 53.0928 61.2498 52.4693 61.2498H36.886C36.2625 61.2498 35.757 60.7443 35.757 60.1207V57.6961C35.757 56.1052 35.2902 54.5657 34.4065 53.243L34.6144 53.1041L34.4065 53.243L32.4721 50.3469L32.68 50.208L32.4721 50.3469C31.3398 48.6517 30.7412 46.6778 30.7412 44.6395V34.4503C30.7412 33.8268 31.2468 33.3213 31.8703 33.3213C32.4938 33.3213 32.9993 33.8268 32.9993 34.4503V44.6395C32.9993 46.2303 33.4662 47.7698 34.3498 49.0927L36.2842 51.9888C37.4165 53.6838 38.0151 55.6577 38.0151 57.6962V58.9917H51.3407V58.1188C51.3407 55.8467 52.1083 53.6081 53.5025 51.814L54.8038 50.1393L55.0012 50.2927L54.8039 50.1393C55.8914 48.7399 56.4906 46.9923 56.4906 45.22V33.8456C56.4906 33.0487 55.8418 32.3999 55.0447 32.3999C54.2476 32.3999 53.5988 33.0486 53.5988 33.8456V43.5207C53.5988 43.9739 53.328 44.3831 52.9107 44.5601C52.738 44.6348 48.6877 46.443 48.447 51.2592C48.4159 51.8813 47.8884 52.3625 47.2627 52.3305M46.1855 41.1453L47.2755 52.0808M46.1855 41.1453C46.1855 41.769 46.691 42.2744 47.3145 42.2744C47.938 42.2744 48.4435 41.769 48.4435 41.1453H48.4183C48.4435 41.1453 48.4435 41.1453 48.4435 41.1452V41.1445L48.4435 41.1419L48.4435 41.1314L48.4436 41.09L48.4436 40.9283L48.4438 40.3147L48.4444 38.1242L48.4462 31.4752L48.4489 21.7807C48.4489 20.9836 49.0978 20.3348 49.8948 20.3348C50.6919 20.3348 51.3407 20.9836 51.3407 21.7807V42.8319M46.1855 41.1453L51.5907 42.9784M47.2627 52.3305L47.2755 52.0808M47.2627 52.3305C47.2628 52.3305 47.2629 52.3305 47.263 52.3305L47.2755 52.0808M47.2627 52.3305C46.64 52.2992 46.1606 51.7692 46.1917 51.1465C46.4411 46.1588 49.8565 43.6788 51.3407 42.8319M47.2755 52.0808C46.7905 52.0565 46.4172 51.6438 46.4414 51.159C46.6919 46.1493 50.2159 43.7339 51.5907 42.9784M51.3407 42.8319V42.9784H51.5907M51.3407 42.8319C51.3857 42.8062 51.429 42.782 51.4703 42.7593L51.5907 42.9784" fill="#3CB68A" stroke="#3CB68A" stroke-width="0.5"/>
<path d="M12.2351 52.3304L12.2358 52.3303C12.8586 52.2992 13.3382 51.7691 13.3071 51.1464C13.0577 46.1586 9.64228 43.6787 8.15808 42.8317V21.7807C8.15808 20.9836 8.80691 20.3348 9.60398 20.3348C10.401 20.3348 11.0499 20.9836 11.0499 21.7807V21.7807L11.0553 41.1453C11.0553 41.1453 11.0553 41.1454 11.0553 41.1454C11.0553 41.769 11.5608 42.2744 12.1843 42.2744C12.8078 42.2744 13.3133 41.769 13.3133 41.1453V41.1453L13.308 19.2238C13.308 19.2237 13.308 19.2237 13.308 19.2237C13.308 18.4267 13.9568 17.7779 14.7539 17.7779C15.5509 17.7779 16.1998 18.4267 16.1998 19.2238V41.1453C16.1998 41.769 16.7053 42.2744 17.3288 42.2744C17.9523 42.2744 18.4578 41.769 18.4578 41.1453V21.7807C18.4578 20.9836 19.1067 20.3348 19.9037 20.3348C20.7008 20.3348 21.3496 20.9836 21.3496 21.7807L21.349 41.1453C21.349 41.769 21.8546 42.2744 22.4781 42.2744C23.1016 42.2744 23.6071 41.769 23.6071 41.1453V27.7742L23.6073 27.772C23.6075 27.7681 23.6077 27.7624 23.6077 27.7556C23.6077 26.9585 24.2565 26.3097 25.0536 26.3097C25.8507 26.3097 26.4995 26.9585 26.4995 27.7556V44.6397C26.4995 46.2304 26.0326 47.77 25.149 49.0928L23.2145 51.9888C22.0823 53.6838 21.4836 55.6577 21.4836 57.6963V58.9919H8.15785V58.119C8.15785 55.8469 7.39029 53.6083 5.99606 51.8142L4.69472 50.1395C3.60723 48.74 3.00808 46.9925 3.00808 45.2201C3.00808 44.5966 2.50254 44.0911 1.87904 44.0911C1.25554 44.0911 0.75 44.5966 0.75 45.2201C0.75 47.4922 1.51755 49.7309 2.91167 51.5249L3.10907 51.3715L2.91167 51.5249L4.21313 53.1996C5.30062 54.599 5.89976 56.3466 5.89976 58.1188V60.1207C5.89976 60.7442 6.4053 61.2497 7.0288 61.2497H22.6121C23.2356 61.2497 23.7411 60.7442 23.7411 60.1207V57.6963C23.7411 56.1054 24.208 54.566 25.0916 53.2432L27.0261 50.3471L26.8183 50.2083L27.0261 50.3471C28.1583 48.652 28.757 46.6782 28.757 44.6398V27.7556C28.757 25.7129 27.0957 24.0516 25.0531 24.0516C24.5407 24.0516 24.0518 24.1564 23.6072 24.3455V21.7807C23.6072 19.7381 21.9459 18.0768 19.9034 18.0768C19.356 18.0768 18.8357 18.1963 18.3674 18.4105C17.9958 16.7579 16.517 15.52 14.7535 15.52C12.99 15.52 11.5112 16.7579 11.1396 18.4105C10.6714 18.1963 10.1511 18.0768 9.60374 18.0768C7.5612 18.0768 5.89988 19.7381 5.89988 21.7807V30.4357C5.4553 30.2465 4.96646 30.1418 4.45398 30.1418C2.41144 30.1418 0.750117 31.8031 0.750117 33.8456V41.1452C0.750117 41.7688 1.25568 42.2742 1.87916 42.2742C2.50264 42.2742 3.0082 41.7688 3.0082 41.1452V33.8456C3.0082 33.0486 3.65701 32.3999 4.4541 32.3999C5.25118 32.3999 5.9 33.0487 5.9 33.8456V43.5207C5.9 43.9723 6.17177 44.3806 6.58485 44.5586C6.74953 44.6296 10.8107 46.4362 11.0518 51.259C11.0821 51.8626 11.5808 52.3317 12.1787 52.3317C12.1975 52.3317 12.2163 52.3312 12.2351 52.3304Z" fill="#3CB68A" stroke="#3CB68A" stroke-width="0.5"/>
<path d="M29.7489 0.5C28.9874 0.5 28.3699 1.11747 28.3699 1.87904V6.05888C28.3699 6.82062 28.9874 7.43793 29.7489 7.43793C30.5105 7.43793 31.128 6.82062 31.128 6.05888V1.87904C31.128 1.11747 30.5105 0.5 29.7489 0.5Z" fill="#E2BE50" stroke="#E2BE50"/>
<path d="M20.0307 3.10487L20.0307 3.10484C20.6903 2.72406 21.5337 2.94991 21.9145 3.60957L20.0307 3.10487ZM20.0307 3.10487C19.3712 3.4857 19.1451 4.32901 19.526 4.98861C19.526 4.98862 19.526 4.98863 19.526 4.98864L21.6159 8.60852L20.0307 3.10487ZM22.811 9.29819C22.336 9.29819 21.8717 9.05155 21.616 8.60855L22.811 9.29819ZM22.811 9.29819C23.0453 9.29819 23.2831 9.2384 23.4997 9.11331L22.811 9.29819ZM24.0044 7.22948L21.9145 3.60963L23.4999 9.11318C24.1594 8.73238 24.3852 7.88898 24.0044 7.22951C24.0044 7.2295 24.0044 7.22949 24.0044 7.22948Z" fill="#E2BE50" stroke="#E2BE50"/>
<path d="M18.9248 13.6862L18.9248 13.6862C18.6691 14.129 18.2049 14.3758 17.7297 14.3758C17.4954 14.3758 17.2576 14.316 17.041 14.1909C17.041 14.1909 17.041 14.1909 17.041 14.1909C17.0409 14.1909 17.0409 14.1908 17.0409 14.1908L13.4212 12.1011C13.4211 12.1011 13.4211 12.1011 13.4211 12.1011C12.7615 11.7203 12.5356 10.8769 12.9163 10.2173L18.9248 13.6862ZM18.9248 13.6862C19.3056 13.0267 19.0797 12.1832 18.4201 11.8024M18.9248 13.6862L18.4201 11.8024M18.4201 11.8024C18.42 11.8024 18.42 11.8024 18.42 11.8024M18.4201 11.8024L18.42 11.8024M18.42 11.8024L14.8003 9.71264L18.42 11.8024ZM14.8001 9.71256C14.1405 9.33157 13.2971 9.55778 12.9164 10.2173L14.8001 9.71256Z" fill="#E2BE50" stroke="#E2BE50"/>
<path d="M42.456 14.1934L42.4561 14.1933L46.0761 12.1035L46.0761 12.1035C46.7356 11.7226 46.9617 10.8793 46.5808 10.2197C46.2001 9.56023 45.3567 9.33401 44.697 9.715C44.697 9.71503 44.697 9.71505 44.6969 9.71508L41.0771 11.8049L41.0771 11.8049C40.4175 12.1857 40.1915 13.029 40.5724 13.6887L40.5724 13.6887C40.8281 14.1314 41.2923 14.3783 41.7674 14.3783C42.0021 14.3783 42.2397 14.3182 42.456 14.1934Z" fill="#E2BE50" stroke="#E2BE50"/>
<path d="M37.8815 8.60855L37.8815 8.60859C37.6258 9.05134 37.1616 9.29819 36.6865 9.29819C36.4521 9.29819 36.2143 9.23838 35.9977 9.11325L37.8815 8.60855ZM37.8815 8.60855L39.9715 4.98864M37.8815 8.60855L39.9715 4.98864M39.9715 4.98864C39.9715 4.98863 39.9715 4.98862 39.9715 4.98861M39.9715 4.98864L39.9715 4.98861M39.9715 4.98861C40.3523 4.32908 40.1264 3.48559 39.4667 3.10484L39.9715 4.98861ZM39.4667 3.10481C38.8071 2.72407 37.9638 2.94993 37.583 3.60957C37.583 3.60959 37.583 3.60961 37.583 3.60963L35.493 7.22948L39.4667 3.10481ZM35.493 7.22951C35.1122 7.88907 35.3382 8.73232 35.9976 9.11318L35.493 7.22951Z" fill="#E2BE50" stroke="#E2BE50"/>
</svg>
