<svg width="26" height="20" viewBox="0 0 26 20" fill="none" xmlns="http://www.w3.org/2000/svg">
<path fill-rule="evenodd" clip-rule="evenodd" d="M12.8917 0C17.75 0 22.2732 3.32474 25.6237 9.35567C25.8539 9.75438 25.8539 10.2456 25.6237 10.6443C22.2732 16.6753 17.75 20 12.8917 20C8.03347 20 3.52316 16.6753 0.172648 10.6443C-0.0575492 10.2456 -0.0575492 9.75438 0.172648 9.35567C3.52316 3.32474 8.03347 0 12.8917 0ZM2.81443 9.94865C3.2098 10.6317 3.63992 11.2941 4.10309 11.9332C3.79391 10.6282 3.79391 9.26908 4.10309 7.96412C3.63992 8.60318 3.2098 9.26556 2.81443 9.94865ZM12.8915 16.4306C9.333 16.4306 6.44824 13.5458 6.44824 9.98726C6.44824 6.42872 9.333 3.54396 12.8915 3.54396C16.4501 3.54396 19.3348 6.42872 19.3348 9.98726C19.3348 13.5458 16.4501 16.4306 12.8915 16.4306ZM22.9693 9.98692C22.5769 9.2979 22.1467 8.63108 21.6807 7.98949C21.9901 9.30313 21.9901 10.6707 21.6807 11.9843C22.1467 11.3428 22.5769 10.6759 22.9693 9.98692Z" fill="#C4C4C4"/>
</svg>
