<svg width="52" height="62" viewBox="0 0 52 62" fill="none" xmlns="http://www.w3.org/2000/svg">
<path d="M32.0482 41.439C30.1042 40.647 27.8722 41.151 26.0002 42.735C24.0562 41.151 21.8962 40.647 19.9522 41.439C18.0082 42.231 15.9202 44.967 15.9202 48.279C15.9202 54.183 20.8162 59.079 25.4242 61.095L26.0002 61.239L26.5762 61.095C31.1842 59.079 36.0802 54.183 36.0802 48.279C36.0802 44.967 34.5682 42.375 32.0482 41.439ZM26.0002 58.215C22.3282 56.343 18.8002 52.455 18.8002 48.279C18.8002 46.263 19.6642 44.607 20.9602 44.103L21.8242 43.959C22.4331 44.0116 23.0239 44.1929 23.5576 44.4907C24.0913 44.7886 24.5557 45.1963 24.9202 45.687C25.0553 45.8402 25.2215 45.9629 25.4077 46.047C25.5939 46.131 25.7959 46.1745 26.0002 46.1745C26.2045 46.1745 26.4064 46.131 26.5926 46.047C26.7788 45.9629 26.945 45.8402 27.0802 45.687C28.3762 44.247 29.8162 43.671 31.0402 44.103C32.2642 44.535 33.2002 46.263 33.2002 48.279C33.2002 52.455 29.6722 56.343 26.0002 58.215Z" fill="#E2BE50"/>
<path d="M37.5921 30.855C39.7266 28.9242 41.3451 26.4907 42.3004 23.7756C43.2558 21.0605 43.5178 18.1498 43.0627 15.3077C42.6076 12.4657 41.4498 9.78229 39.6944 7.50128C37.939 5.22026 35.6416 3.41386 33.0108 2.2461C30.3801 1.07834 27.4993 0.586215 24.6301 0.814405C21.7609 1.04259 18.9941 1.98387 16.581 3.55277C14.168 5.12167 12.185 7.26849 10.8122 9.79829C9.43938 12.3281 8.72025 15.1607 8.72008 18.039C8.72878 20.4527 9.23888 22.8382 10.218 25.0444C11.1972 27.2506 12.624 29.2293 14.4081 30.855C10.2258 32.3613 6.60786 35.1174 4.04484 38.7494C1.48182 42.3814 0.0976762 46.7137 0.0800781 51.159C0.0800781 52.3047 0.53522 53.4035 1.34538 54.2137C2.15553 55.0239 3.25434 55.479 4.40008 55.479H10.1601C10.542 55.479 10.9083 55.3273 11.1783 55.0572C11.4484 54.7872 11.6001 54.4209 11.6001 54.039C11.6001 53.6571 11.4484 53.2908 11.1783 53.0208C10.9083 52.7507 10.542 52.599 10.1601 52.599H4.40008C4.01817 52.599 3.6519 52.4473 3.38184 52.1772C3.11179 51.9072 2.96008 51.5409 2.96008 51.159C2.97596 46.9574 4.40482 42.8834 7.01678 39.5923C9.62873 36.3013 13.2719 33.9846 17.3601 33.015C19.9893 34.5246 22.9683 35.319 26.0001 35.319C29.0319 35.319 32.0108 34.5246 34.6401 33.015C38.7283 33.9846 42.3714 36.3013 44.9834 39.5923C47.5953 42.8834 49.0242 46.9574 49.0401 51.159C49.0401 51.5409 48.8884 51.9072 48.6183 52.1772C48.3483 52.4473 47.982 52.599 47.6001 52.599H41.8401C41.4582 52.599 41.0919 52.7507 40.8218 53.0208C40.5518 53.2908 40.4001 53.6571 40.4001 54.039C40.4001 54.4209 40.5518 54.7872 40.8218 55.0572C41.0919 55.3273 41.4582 55.479 41.8401 55.479H47.6001C48.7458 55.479 49.8446 55.0239 50.6548 54.2137C51.4649 53.4035 51.9201 52.3047 51.9201 51.159C51.9025 46.7137 50.5183 42.3814 47.9553 38.7494C45.3923 35.1174 41.7744 32.3613 37.5921 30.855ZM11.6001 18.039C11.6001 15.191 12.4446 12.4069 14.0269 10.0388C15.6092 7.67072 17.8582 5.82504 20.4894 4.73514C23.1207 3.64524 26.0161 3.36007 28.8094 3.91569C31.6027 4.47132 34.1685 5.84279 36.1824 7.85667C38.1963 9.87054 39.5678 12.4364 40.1234 15.2297C40.679 18.023 40.3938 20.9184 39.3039 23.5496C38.214 26.1809 36.3684 28.4299 34.0003 30.0122C31.6322 31.5945 28.8481 32.439 26.0001 32.439C22.1868 32.4201 18.5351 30.8969 15.8387 28.2004C13.1422 25.504 11.619 21.8523 11.6001 18.039Z" fill="#3CB68A"/>
</svg>
