<svg width="60" height="60" viewBox="0 0 60 60" fill="none" xmlns="http://www.w3.org/2000/svg">
<path d="M29.4 20.8997L30 21.0495L30.6 20.8997C35.4 18.8024 40.5 13.7089 40.5 7.56669C40.5 4.12107 38.925 1.4245 36.3 0.450739C33.675 -0.523023 32.025 0.15112 30 1.79902C27.975 0.15112 25.725 -0.373213 23.7 0.450739C21.675 1.27469 19.5 4.12107 19.5 7.56669C19.5 13.7089 24.6 18.8024 29.4 20.8997ZM24.75 3.22221L25.65 3.0724C26.2843 3.12715 26.8997 3.31571 27.4557 3.6256C28.0116 3.93549 28.4954 4.35967 28.875 4.87012C29.0158 5.02952 29.1889 5.15719 29.3828 5.24464C29.5768 5.33209 29.7872 5.37732 30 5.37732C30.2128 5.37732 30.4232 5.33209 30.6172 5.24464C30.8111 5.15719 30.9842 5.02952 31.125 4.87012C32.475 3.37202 33.975 2.77279 35.25 3.22221C36.525 3.67164 37.5 5.46936 37.5 7.56669C37.5 12.3606 33.225 16.2556 30 17.9035C26.775 16.2556 22.5 12.3606 22.5 7.56669C22.5 5.46936 23.4 3.74655 24.75 3.22221Z" fill="#E2BE50"/>
<path d="M36.15 48.5395C37.4681 47.3073 38.3848 45.7078 38.7808 43.9486C39.1768 42.1894 39.034 40.3519 38.3707 38.6749C37.7075 36.9979 36.5546 35.5588 35.0618 34.5447C33.5691 33.5306 31.8054 32.9883 30 32.9883C28.1946 32.9883 26.4309 33.5306 24.9382 34.5447C23.4454 35.5588 22.2925 36.9979 21.6293 38.6749C20.966 40.3519 20.8232 42.1894 21.2192 43.9486C21.6152 45.7078 22.5319 47.3073 23.85 48.5395C21.7253 49.2068 19.8681 50.5316 18.5468 52.3224C17.2256 54.1133 16.5088 56.2773 16.5 58.5018C16.5 58.8991 16.658 59.2801 16.9393 59.5611C17.2206 59.842 17.6022 59.9999 18 59.9999H42C42.3978 59.9999 42.7794 59.842 43.0607 59.5611C43.342 59.2801 43.5 58.8991 43.5 58.5018C43.4912 56.2773 42.7744 54.1133 41.4532 52.3224C40.1319 50.5316 38.2747 49.2068 36.15 48.5395ZM30 36.0304C31.1867 36.0304 32.3467 36.3818 33.3334 37.0403C34.3201 37.6987 35.0892 38.6346 35.5433 39.7296C35.9974 40.8245 36.1162 42.0294 35.8847 43.1918C35.6532 44.3542 35.0818 45.4219 34.2426 46.26C33.4035 47.098 32.3344 47.6688 31.1705 47.9C30.0067 48.1312 28.8003 48.0125 27.7039 47.559C26.6075 47.1054 25.6705 46.3374 25.0112 45.3519C24.3519 44.3665 24 43.2079 24 42.0227C24 40.4335 24.6321 38.9093 25.7574 37.7855C26.8826 36.6617 28.4087 36.0304 30 36.0304ZM19.65 57.0037C19.9958 55.3118 20.9163 53.7912 22.2556 52.6992C23.595 51.6072 25.271 51.011 27 51.0113H33C34.729 51.011 36.405 51.6072 37.7444 52.6992C39.0837 53.7912 40.0042 55.3118 40.35 57.0037H19.65Z" fill="#3CB68A"/>
<path d="M18.825 46.5173C18.825 46.12 18.667 45.7389 18.3857 45.458C18.1044 45.1771 17.7228 45.0192 17.325 45.0192H3.15C3.4958 43.3273 4.41627 41.8067 5.75565 40.7147C7.09502 39.6228 8.77102 39.0265 10.5 39.0268H17.325C17.7228 39.0268 18.1044 38.869 18.3857 38.5881C18.667 38.3071 18.825 37.9261 18.825 37.5287C18.825 37.1314 18.667 36.7504 18.3857 36.4694C18.1044 36.1885 17.7228 36.0307 17.325 36.0307H13.5C12.3133 36.0307 11.1533 35.6792 10.1666 35.0208C9.17988 34.3623 8.41085 33.4264 7.95672 32.3315C7.5026 31.2365 7.38378 30.0316 7.61529 28.8692C7.8468 27.7068 8.41824 26.6391 9.25736 25.801C10.0965 24.963 11.1656 24.3922 12.3295 24.161C13.4933 23.9298 14.6997 24.0485 15.7961 24.502C16.8925 24.9556 17.8295 25.7236 18.4888 26.7091C19.1481 27.6945 19.5 28.8531 19.5 30.0383C19.5041 30.6747 19.4028 31.3075 19.2 31.9109C19.1517 32.2536 19.2238 32.6025 19.4039 32.8982C19.5841 33.1939 19.8612 33.4182 20.1881 33.5329C20.5151 33.6477 20.8718 33.6458 21.1975 33.5276C21.5233 33.4094 21.798 33.1822 21.975 32.8847C22.3168 31.9742 22.4945 31.0106 22.5 30.0383C22.5076 28.5456 22.1429 27.0745 21.4388 25.7579C20.7347 24.4412 19.7133 23.3204 18.4669 22.4966C17.2206 21.6729 15.7884 21.1721 14.2997 21.0395C12.811 20.9068 11.3127 21.1466 9.94003 21.737C8.56735 22.3275 7.3635 23.2501 6.43718 24.4215C5.51086 25.5929 4.89121 26.9763 4.63419 28.4467C4.37717 29.9172 4.49086 31.4284 4.96501 32.844C5.43915 34.2596 6.25881 35.535 7.35 36.555C5.22528 37.2223 3.36807 38.5471 2.04683 40.338C0.725595 42.1288 0.00877926 44.2929 0 46.5173C0 46.9146 0.158036 47.2957 0.43934 47.5766C0.720645 47.8576 1.10218 48.0154 1.5 48.0154H17.325C17.7228 48.0154 18.1044 47.8576 18.3857 47.5766C18.667 47.2957 18.825 46.9146 18.825 46.5173Z" fill="#3CB68A"/>
<path d="M52.6501 36.555C53.7413 35.535 54.561 34.2596 55.0351 32.844C55.5092 31.4284 55.6229 29.9172 55.3659 28.4467C55.1089 26.9763 54.4893 25.5929 53.5629 24.4215C52.6366 23.2501 51.4328 22.3275 50.0601 21.737C48.6874 21.1466 47.1891 20.9068 45.7004 21.0395C44.2117 21.1721 42.7796 21.6729 41.5332 22.4966C40.2868 23.3204 39.2654 24.4412 38.5613 25.7579C37.8572 27.0745 37.4925 28.5456 37.5001 30.0383C37.5056 31.0106 37.6833 31.9742 38.0251 32.8847C38.056 33.1042 38.1354 33.3142 38.2574 33.4995C38.3795 33.6847 38.5412 33.8406 38.7308 33.9558C38.9205 34.0711 39.1334 34.1428 39.3542 34.1659C39.5751 34.189 39.7983 34.1629 40.0077 34.0894C40.2172 34.0159 40.4077 33.8969 40.5655 33.7409C40.7234 33.5849 40.8445 33.3959 40.9204 33.1875C40.9962 32.9791 41.0247 32.7565 41.0039 32.5357C40.9831 32.3149 40.9135 32.1015 40.8001 31.9109C40.5973 31.3075 40.496 30.6747 40.5001 30.0383C40.5001 28.8531 40.852 27.6945 41.5113 26.7091C42.1706 25.7236 43.1077 24.9556 44.204 24.502C45.3004 24.0485 46.5068 23.9298 47.6707 24.161C48.8345 24.3922 49.9036 24.963 50.7428 25.801C51.5819 26.6391 52.1533 27.7068 52.3848 28.8692C52.6163 30.0316 52.4975 31.2365 52.0434 32.3315C51.5893 33.4264 50.8202 34.3623 49.8335 35.0208C48.8468 35.6792 47.6868 36.0307 46.5001 36.0307H42.6751C42.2773 36.0307 41.8958 36.1885 41.6145 36.4694C41.3332 36.7504 41.1751 37.1314 41.1751 37.5287C41.1751 37.9261 41.3332 38.3071 41.6145 38.5881C41.8958 38.869 42.2773 39.0268 42.6751 39.0268H49.5001C51.2291 39.0265 52.9051 39.6228 54.2445 40.7147C55.5838 41.8067 56.5043 43.3273 56.8501 45.0192H42.6751C42.2773 45.0192 41.8958 45.1771 41.6145 45.458C41.3332 45.7389 41.1751 46.12 41.1751 46.5173C41.1751 46.9146 41.3332 47.2957 41.6145 47.5766C41.8958 47.8576 42.2773 48.0154 42.6751 48.0154H58.5001C58.8979 48.0154 59.2795 47.8576 59.5608 47.5766C59.8421 47.2957 60.0001 46.9146 60.0001 46.5173C59.9913 44.2929 59.2745 42.1288 57.9533 40.338C56.632 38.5471 54.7748 37.2223 52.6501 36.555Z" fill="#3CB68A"/>
</svg>
