<svg width="42" height="40" viewBox="0 0 42 40" fill="none" xmlns="http://www.w3.org/2000/svg">
<path fill-rule="evenodd" clip-rule="evenodd" d="M20.8822 0C9.51161 0 0.293945 8.95431 0.293945 20C0.293945 31.0457 9.51161 40 20.8822 40C32.2528 40 41.4704 31.0457 41.4704 20C41.4704 8.95431 32.2528 0 20.8822 0ZM16.3557 9.39745C17.5269 9.34567 17.9012 9.33301 20.8833 9.33301H20.8799C23.8629 9.33301 24.2358 9.34567 25.407 9.39745C26.576 9.44945 27.3744 9.62923 28.0744 9.89301C28.7973 10.1652 29.4081 10.5297 30.0189 11.123C30.6296 11.7159 31.0048 12.311 31.2862 13.0126C31.5561 13.6908 31.7414 14.466 31.7963 15.6015C31.8489 16.7393 31.8627 17.1029 31.8627 19.9998C31.8627 22.8967 31.8489 23.2594 31.7963 24.3972C31.7414 25.5323 31.5561 26.3076 31.2862 26.9861C31.0048 27.6874 30.6296 28.2825 30.0189 28.8754C29.4088 29.4688 28.797 29.8341 28.0751 30.1066C27.3764 30.3703 26.5776 30.5501 25.4086 30.6021C24.2374 30.6539 23.8643 30.6666 20.8819 30.6666C17.9 30.6666 17.526 30.6539 16.3548 30.6021C15.186 30.5501 14.3879 30.3703 13.6892 30.1066C12.9675 29.8341 12.3549 29.4688 11.7448 28.8754C11.1342 28.2825 10.759 27.6874 10.4784 26.9859C10.207 26.3076 10.022 25.5325 9.96822 24.3969C9.91515 23.2592 9.90188 22.8967 9.90188 19.9998C9.90188 17.1029 9.91561 16.7391 9.96799 15.6013C10.0206 14.4662 10.2059 13.6908 10.4781 13.0124C10.7595 12.311 11.1347 11.7159 11.7455 11.123C12.3558 10.5299 12.9684 10.1655 13.6906 9.89301C14.3888 9.62923 15.1867 9.44945 16.3557 9.39745Z" fill="#3CB68A"/>
<path fill-rule="evenodd" clip-rule="evenodd" d="M19.8985 11.2556C20.0898 11.2553 20.2955 11.2554 20.5176 11.2555L20.8836 11.2556C23.8154 11.2556 24.1628 11.2658 25.3206 11.3169C26.3912 11.3645 26.9723 11.5383 27.3593 11.6843C27.8717 11.8776 28.2371 12.1087 28.6212 12.4821C29.0055 12.8554 29.2434 13.211 29.4429 13.7087C29.5932 14.0843 29.7723 14.6487 29.821 15.6888C29.8736 16.8132 29.8851 17.151 29.8851 19.9977C29.8851 22.8444 29.8736 23.1822 29.821 24.3066C29.7721 25.3466 29.5932 25.9111 29.4429 26.2866C29.2438 26.7844 29.0055 27.1389 28.6212 27.512C28.2368 27.8853 27.872 28.1164 27.3593 28.3098C26.9727 28.4564 26.3912 28.6298 25.3206 28.6773C24.1631 28.7284 23.8154 28.7396 20.8836 28.7396C17.9515 28.7396 17.6041 28.7284 16.4465 28.6773C15.3759 28.6293 14.7949 28.4556 14.4076 28.3096C13.8952 28.1162 13.5291 27.8851 13.1448 27.5118C12.7605 27.1384 12.5226 26.7838 12.3231 26.2858C12.1728 25.9102 11.9937 25.3457 11.945 24.3057C11.8924 23.1813 11.8818 22.8435 11.8818 19.995C11.8818 17.1465 11.8924 16.8105 11.945 15.6861C11.9939 14.6461 12.1728 14.0816 12.3231 13.7056C12.5221 13.2078 12.7605 12.8523 13.1448 12.4789C13.5291 12.1056 13.8952 11.8745 14.4076 11.6807C14.7946 11.534 15.3759 11.3607 16.4465 11.3129C17.4595 11.2685 17.852 11.2552 19.8985 11.2529V11.2556ZM26.7448 13.0268C26.0173 13.0268 25.4271 13.5995 25.4271 14.3064C25.4271 15.0131 26.0173 15.5864 26.7448 15.5864C27.4722 15.5864 28.0624 15.0131 28.0624 14.3064C28.0624 13.5997 27.4722 13.0264 26.7448 13.0264V13.0268ZM15.2446 20.0003C15.2446 16.9752 17.7693 14.5226 20.8833 14.5225C23.9974 14.5225 26.5216 16.9752 26.5216 20.0003C26.5216 23.0254 23.9977 25.477 20.8835 25.477C17.7694 25.477 15.2446 23.0254 15.2446 20.0003Z" fill="#3CB68A"/>
<path fill-rule="evenodd" clip-rule="evenodd" d="M20.8828 16.4443C22.9042 16.4443 24.543 18.0361 24.543 19.9999C24.543 21.9635 22.9042 23.5555 20.8828 23.5555C18.8613 23.5555 17.2227 21.9635 17.2227 19.9999C17.2227 18.0361 18.8613 16.4443 20.8828 16.4443V16.4443Z" fill="#3CB68A"/>
</svg>
