<svg width="271" height="100" viewBox="0 0 271 100" fill="none" xmlns="http://www.w3.org/2000/svg">
<rect x="14.6443" y="14.6445" width="70.7107" height="70.7107" fill="#114E47"/>
<path d="M50 0L100 50L50 100L0 50L50 0Z" fill="#11716F"/>
<path fill-rule="evenodd" clip-rule="evenodd" d="M66.7433 27.8542L50.0766 11.1875L11.1877 50.0764L38.9655 77.8542L61.1877 55.6319L66.7433 61.1875L55.6322 72.2986L61.1877 77.8542L77.8544 61.1875L50.0766 33.4097L38.9655 44.5208L33.41 38.9653L50.0766 22.2986L61.1877 33.4097L66.7433 27.8542ZM55.6322 50.0764L50.0766 44.5208L44.5211 50.0764L50.0766 55.6319L55.6322 50.0764ZM44.5211 61.1875L38.9655 66.743L22.2989 50.0764L27.8544 44.5208L44.5211 61.1875Z" fill="#E2BE50"/>
<path d="M83.41 55.6319L88.9655 50.0764L83.41 44.5208L77.8544 50.0764L83.41 55.6319Z" fill="#E2BE50"/>
<path d="M77.8544 38.9653L72.2989 33.4097L66.7433 38.9653L72.2989 44.5208L77.8544 38.9653Z" fill="#E2BE50"/>
<path d="M55.6322 83.4097L50.0766 77.8542L44.5211 83.4097L50.0766 88.9653L55.6322 83.4097Z" fill="#E2BE50"/>
<path d="M125.57 47.81L133.895 24.095H140.465L128.63 56H122.24L110.45 24.095H117.245L125.57 47.81ZM163.459 56L160.804 48.71H147.844L145.189 56H138.619L150.859 24.095H158.059L170.209 56H163.459ZM154.324 30.98L149.914 43.04H158.734L154.324 30.98ZM170.861 40.07C170.861 35.09 172.466 31.07 175.676 28.01C178.886 24.95 182.741 23.42 187.241 23.42C191.771 23.42 195.641 24.95 198.851 28.01C202.061 31.07 203.666 35.09 203.666 40.07C203.666 44.42 202.361 48.095 199.751 51.095L203.576 55.325L199.481 58.835L195.566 54.515C193.016 55.955 190.241 56.675 187.241 56.675C182.741 56.675 178.886 55.145 175.676 52.085C172.466 49.025 170.861 45.02 170.861 40.07ZM180.266 32.195C178.286 34.025 177.296 36.635 177.296 40.025C177.296 43.415 178.286 46.04 180.266 47.9C182.246 49.73 184.571 50.645 187.241 50.645C188.711 50.645 190.076 50.375 191.336 49.835L186.341 44.345L190.481 40.79L195.476 46.37C196.646 44.63 197.231 42.515 197.231 40.025C197.231 36.635 196.241 34.025 194.261 32.195C192.281 30.335 189.941 29.405 187.241 29.405C184.571 29.405 182.246 30.335 180.266 32.195ZM215.305 56H209.05V24.095H229.21V29.99H215.26V37.865H227.68V43.58H215.305V56Z" fill="#3CB68A"/>
<path d="M118.004 75H115.928L113.936 71.76L111.944 75H110L112.844 70.584L110.18 66.432H112.184L114.032 69.516L115.844 66.432H117.8L115.112 70.68L118.004 75ZM124.328 75L123.704 72.96H120.584L119.96 75H118.004L121.028 66.396H123.248L126.284 75H124.328ZM122.648 69.444C122.608 69.308 122.556 69.136 122.492 68.928C122.428 68.72 122.364 68.508 122.3 68.292C122.236 68.076 122.184 67.888 122.144 67.728C122.104 67.888 122.048 68.088 121.976 68.328C121.912 68.56 121.848 68.784 121.784 69C121.728 69.208 121.684 69.356 121.652 69.444L121.04 71.436H123.272L122.648 69.444ZM134.269 63.612C134.229 64.028 134.113 64.396 133.921 64.716C133.729 65.028 133.429 65.272 133.021 65.448C132.613 65.624 132.065 65.712 131.377 65.712C130.673 65.712 130.121 65.628 129.721 65.46C129.329 65.284 129.049 65.04 128.881 64.728C128.713 64.416 128.613 64.044 128.581 63.612H130.177C130.217 64.052 130.329 64.344 130.513 64.488C130.697 64.632 130.997 64.704 131.413 64.704C131.757 64.704 132.037 64.628 132.253 64.476C132.477 64.316 132.609 64.028 132.649 63.612H134.269ZM127.369 66.432H129.001V70.572C129.001 70.772 128.997 70.996 128.989 71.244C128.981 71.492 128.973 71.736 128.965 71.976C128.957 72.208 128.949 72.412 128.941 72.588C128.933 72.756 128.925 72.872 128.917 72.936H128.953L132.913 66.432H135.085V75H133.465V70.884C133.465 70.668 133.469 70.432 133.477 70.176C133.485 69.912 133.493 69.66 133.501 69.42C133.517 69.18 133.529 68.972 133.537 68.796C133.553 68.612 133.565 68.492 133.573 68.436H133.525L129.553 75H127.369V66.432ZM139.984 66.432C141.088 66.432 141.892 66.672 142.396 67.152C142.908 67.624 143.164 68.276 143.164 69.108C143.164 69.604 143.06 70.072 142.852 70.512C142.644 70.944 142.296 71.292 141.808 71.556C141.328 71.82 140.672 71.952 139.84 71.952H139.06V75H137.248V66.432H139.984ZM139.888 67.92H139.06V70.464H139.66C140.172 70.464 140.576 70.364 140.872 70.164C141.176 69.956 141.328 69.624 141.328 69.168C141.328 68.336 140.848 67.92 139.888 67.92ZM144.783 66.432H146.415V70.572C146.415 70.772 146.411 70.996 146.403 71.244C146.395 71.492 146.387 71.736 146.379 71.976C146.371 72.208 146.363 72.412 146.355 72.588C146.347 72.756 146.339 72.872 146.331 72.936H146.367L150.327 66.432H152.499V75H150.879V70.884C150.879 70.668 150.883 70.432 150.891 70.176C150.899 69.912 150.907 69.66 150.915 69.42C150.931 69.18 150.943 68.972 150.951 68.796C150.967 68.612 150.979 68.492 150.987 68.436H150.939L146.967 75H144.783V66.432ZM157.542 71.712L155.538 75H153.522L155.958 71.232C155.726 71.136 155.494 70.996 155.262 70.812C155.03 70.62 154.838 70.368 154.686 70.056C154.534 69.736 154.458 69.344 154.458 68.88C154.458 68.088 154.742 67.484 155.31 67.068C155.878 66.644 156.674 66.432 157.698 66.432H160.482V75H158.67V71.712H157.542ZM157.77 67.92C157.306 67.92 156.942 68.004 156.678 68.172C156.422 68.34 156.294 68.62 156.294 69.012C156.294 69.388 156.418 69.688 156.666 69.912C156.922 70.128 157.306 70.236 157.818 70.236H158.67V67.92H157.77ZM167.575 70.548L164.695 66.432H166.567L169.339 70.584V66.432H171.031V70.584L173.803 66.432H175.675L172.795 70.548L175.843 75H173.899L171.031 70.656V75H169.339V70.656L166.471 75H164.527L167.575 70.548ZM182.172 75L181.548 72.96H178.428L177.804 75H175.848L178.872 66.396H181.092L184.128 75H182.172ZM180.492 69.444C180.452 69.308 180.4 69.136 180.336 68.928C180.272 68.72 180.208 68.508 180.144 68.292C180.08 68.076 180.028 67.888 179.988 67.728C179.948 67.888 179.892 68.088 179.82 68.328C179.756 68.56 179.692 68.784 179.628 69C179.572 69.208 179.528 69.356 179.496 69.444L178.884 71.436H181.116L180.492 69.444ZM188.837 75L186.773 68.28H186.725C186.733 68.44 186.745 68.68 186.761 69C186.777 69.32 186.793 69.664 186.809 70.032C186.825 70.392 186.833 70.72 186.833 71.016V75H185.213V66.432H187.685L189.713 72.984H189.749L191.897 66.432H194.369V75H192.677V70.944C192.677 70.672 192.681 70.36 192.689 70.008C192.705 69.656 192.717 69.324 192.725 69.012C192.741 68.692 192.753 68.452 192.761 68.292H192.713L190.505 75H188.837ZM204.309 70.704C204.309 71.592 204.161 72.368 203.865 73.032C203.577 73.688 203.133 74.2 202.533 74.568C201.933 74.936 201.165 75.12 200.229 75.12C199.301 75.12 198.533 74.936 197.925 74.568C197.325 74.2 196.877 73.684 196.581 73.02C196.293 72.356 196.149 71.58 196.149 70.692C196.149 69.804 196.293 69.032 196.581 68.376C196.877 67.72 197.325 67.212 197.925 66.852C198.533 66.484 199.305 66.3 200.241 66.3C201.169 66.3 201.933 66.484 202.533 66.852C203.133 67.212 203.577 67.724 203.865 68.388C204.161 69.044 204.309 69.816 204.309 70.704ZM198.057 70.704C198.057 71.6 198.229 72.308 198.573 72.828C198.917 73.34 199.469 73.596 200.229 73.596C201.005 73.596 201.561 73.34 201.897 72.828C202.233 72.308 202.401 71.6 202.401 70.704C202.401 69.8 202.233 69.092 201.897 68.58C201.561 68.068 201.009 67.812 200.241 67.812C199.473 67.812 198.917 68.068 198.573 68.58C198.229 69.092 198.057 69.8 198.057 70.704ZM211.094 75L210.47 72.96H207.35L206.726 75H204.77L207.794 66.396H210.014L213.05 75H211.094ZM209.414 69.444C209.374 69.308 209.322 69.136 209.258 68.928C209.194 68.72 209.13 68.508 209.066 68.292C209.002 68.076 208.95 67.888 208.91 67.728C208.87 67.888 208.814 68.088 208.742 68.328C208.678 68.56 208.614 68.784 208.55 69C208.494 69.208 208.45 69.356 208.418 69.444L207.806 71.436H210.038L209.414 69.444ZM216.591 75H214.779V67.944H212.451V66.432H218.919V67.944H216.591V75ZM228.101 67.368C229.037 67.392 229.781 67.556 230.333 67.86C230.893 68.156 231.293 68.54 231.533 69.012C231.781 69.484 231.905 70 231.905 70.56C231.905 70.92 231.841 71.288 231.713 71.664C231.593 72.04 231.385 72.388 231.089 72.708C230.801 73.02 230.413 73.276 229.925 73.476C229.437 73.676 228.829 73.784 228.101 73.8V75.12H226.469V73.8C225.733 73.784 225.117 73.676 224.621 73.476C224.133 73.276 223.745 73.016 223.457 72.696C223.169 72.376 222.965 72.032 222.845 71.664C222.725 71.288 222.665 70.92 222.665 70.56C222.665 70 222.785 69.484 223.025 69.012C223.273 68.54 223.673 68.156 224.225 67.86C224.785 67.556 225.533 67.392 226.469 67.368V66.312H228.101V67.368ZM226.469 68.784C225.693 68.816 225.149 68.996 224.837 69.324C224.525 69.644 224.369 70.052 224.369 70.548C224.369 71.084 224.537 71.52 224.873 71.856C225.209 72.184 225.741 72.364 226.469 72.396V68.784ZM228.101 72.396C228.837 72.364 229.369 72.184 229.697 71.856C230.033 71.52 230.201 71.084 230.201 70.548C230.201 70.052 230.045 69.644 229.733 69.324C229.429 68.996 228.885 68.816 228.101 68.784V72.396ZM241.305 70.704C241.305 71.592 241.157 72.368 240.861 73.032C240.573 73.688 240.129 74.2 239.529 74.568C238.929 74.936 238.161 75.12 237.225 75.12C236.297 75.12 235.529 74.936 234.921 74.568C234.321 74.2 233.873 73.684 233.577 73.02C233.289 72.356 233.145 71.58 233.145 70.692C233.145 69.804 233.289 69.032 233.577 68.376C233.873 67.72 234.321 67.212 234.921 66.852C235.529 66.484 236.301 66.3 237.237 66.3C238.165 66.3 238.929 66.484 239.529 66.852C240.129 67.212 240.573 67.724 240.861 68.388C241.157 69.044 241.305 69.816 241.305 70.704ZM235.053 70.704C235.053 71.6 235.225 72.308 235.569 72.828C235.913 73.34 236.465 73.596 237.225 73.596C238.001 73.596 238.557 73.34 238.893 72.828C239.229 72.308 239.397 71.6 239.397 70.704C239.397 69.8 239.229 69.092 238.893 68.58C238.557 68.068 238.005 67.812 237.237 67.812C236.469 67.812 235.913 68.068 235.569 68.58C235.225 69.092 235.053 69.8 235.053 70.704ZM250.1 75H248.288V71.304H244.892V75H243.08V66.432H244.892V69.792H248.288V66.432H250.1V75ZM258.964 66.432V73.488H260.104V77.496H258.352V75H252.988V77.496H251.236V73.488H251.896C252.2 72.888 252.484 72.248 252.748 71.568C253.012 70.88 253.248 70.116 253.456 69.276C253.672 68.436 253.844 67.488 253.972 66.432H258.964ZM255.412 67.944C255.34 68.496 255.224 69.096 255.064 69.744C254.912 70.384 254.728 71.028 254.512 71.676C254.296 72.316 254.06 72.92 253.804 73.488H257.152V67.944H255.412ZM261.42 66.432H263.052V70.572C263.052 70.772 263.048 70.996 263.04 71.244C263.032 71.492 263.024 71.736 263.016 71.976C263.008 72.208 263 72.412 262.992 72.588C262.984 72.756 262.976 72.872 262.968 72.936H263.004L266.964 66.432H269.136V75H267.516V70.884C267.516 70.668 267.52 70.432 267.528 70.176C267.536 69.912 267.544 69.66 267.552 69.42C267.568 69.18 267.58 68.972 267.588 68.796C267.604 68.612 267.616 68.492 267.624 68.436H267.576L263.604 75H261.42V66.432Z" fill="#114E47"/>
</svg>
