<svg width="60" height="60" viewBox="0 0 60 60" fill="none" xmlns="http://www.w3.org/2000/svg">
<path d="M42.6224 50.5612H41.9289C40.8445 44.2691 40.67 37.8134 36.9124 34.1284C33.2315 30.5192 28.4175 29.4023 25.2236 26.481V25.1137C25.5162 24.9736 25.7202 24.677 25.7202 24.3316C25.7202 23.986 25.5162 23.6894 25.2236 23.5492V22.9681C25.2999 22.8806 25.3477 22.7677 25.3477 22.6427C25.3477 22.3684 24.8511 20.9536 24.8511 20.9536C24.8511 20.9536 24.3543 22.3684 24.3543 22.6427C24.3543 22.7678 24.4021 22.881 24.4786 22.9682V23.5492C24.1858 23.6893 23.9818 23.986 23.9818 24.3316C23.9818 24.6772 24.1859 24.9736 24.4786 25.1138V26.481C21.2847 29.4023 16.4704 30.5192 12.7897 34.1286C9.03199 37.8138 8.8573 44.2693 7.77302 50.5614H7.07925L5.88696 53.6414H43.8148L42.6224 50.5612ZM12.7654 50.4371H11.4186V48.4996H12.7654V50.4371ZM17.0182 50.4371H15.6716V48.4996H17.0182V50.4371ZM21.2711 50.4371H19.9246V48.4996H21.2711V50.4371ZM25.5244 50.4371H24.1775V48.4996H25.5244V50.4371ZM29.7772 50.4371H28.4303V48.4996H29.7772V50.4371ZM34.0299 50.4371H32.6833V48.4996H34.0299V50.4371ZM38.283 50.4371H36.9361V48.4996H38.283V50.4371Z" fill="#E2BE50"/>
<path d="M52.8278 38.6992V37.2312L51.2241 35.832L49.1752 37.6207L47.1257 35.8322L45.5253 37.2293V38.6992H42.9172V43.5674H44.802V55.2312H4.56396V60.0002H44.8022H45.1377H53.5505V43.5676H55.4361V38.6993H52.8278V38.6992ZM50.9361 54.453H47.4172V49.6828H47.904V47.8055L49.1767 46.5545L50.4494 47.8055V49.6828H50.9363V54.453H50.9361Z" fill="#3CB68A"/>
<path d="M47.1256 31.8078L45.5251 33.2048V36.2397L47.1256 34.8426L49.1752 36.6313L51.2238 34.8426L52.8277 36.242V33.2066L51.2239 31.8076L49.1752 33.5961L47.1256 31.8078Z" fill="#3CB68A"/>
<path d="M44.4194 27.4221L45.5253 30.8623V32.2159L47.1258 30.8189L49.1752 32.6073L51.2239 30.8191L52.8278 32.2181V30.8614L53.9337 27.4221H52.8278V13.5735L53.9337 10.1342H50.9956V7.13469C50.9956 6.25783 50.3749 5.526 49.5491 5.35406V4.16006C49.8417 4.02 50.0459 3.72343 50.0459 3.37817C50.0459 3.03257 49.8417 2.736 49.5491 2.59577V2.01446C49.6255 1.9272 49.6734 1.81406 49.6734 1.68891C49.6734 1.41463 49.1766 0 49.1766 0C49.1766 0 48.6799 1.4148 48.6799 1.68891C48.6799 1.81423 48.7278 1.9272 48.8041 2.01446V2.59594C48.5114 2.736 48.3074 3.03257 48.3074 3.37817C48.3074 3.7236 48.5114 4.02 48.8041 4.16006V5.35406C47.9781 5.526 47.3575 6.25766 47.3575 7.13469V10.1342H44.4194L45.5253 13.5744V27.4219H44.4194V27.4221ZM48.1806 15.4817H48.4561V14.4192L49.1766 13.711L49.8967 14.4192V15.4817H50.1722V18.1821H48.1804V15.4817H48.1806ZM48.1806 21.8899H48.4561V20.8279L49.1766 20.1194L49.8967 20.8279V21.8899H50.1722V24.5902H48.1804V21.8899H48.1806Z" fill="#3CB68A"/>
</svg>
