<svg width="61" height="54" viewBox="0 0 61 54" fill="none" xmlns="http://www.w3.org/2000/svg">
<path d="M7.32656 53.27C6.17314 53.27 5.05447 53.0847 3.99911 52.7195L1.59578 51.8881L3.44248 50.1394C5.88672 47.8249 6.50357 45.1552 6.54372 43.1556C2.31918 38.4717 3.28134e-08 32.6283 3.28134e-08 26.635C-0.000771996 11.9487 13.6217 0 30.3654 0C47.1092 0 60.7324 11.9487 60.7324 26.635C60.7324 41.3205 47.1092 53.2685 30.3654 53.2685C25.3805 53.2685 20.4626 52.1884 16.0798 50.1363C14.4285 51.306 11.0925 53.27 7.32656 53.27ZM15.7177 46.5109L16.604 46.9594C20.7707 49.0663 25.5295 50.1811 30.3647 50.1811C45.4061 50.1811 57.6436 39.6182 57.6436 26.6358C57.6436 13.6518 45.4061 3.08889 30.3647 3.08889C15.3232 3.08889 3.08657 13.6518 3.08657 26.635C3.08657 32.0307 5.25906 37.306 9.2049 41.4881L9.60636 41.9135L9.62489 42.4979C9.69283 44.597 9.31608 47.4435 7.45008 50.1803C11.0261 50.1232 14.3134 47.6342 14.9419 47.1316L15.7177 46.5109Z" fill="#3CB68A"/>
<path d="M15.6369 33.9169C14.5043 33.9169 13.5848 33.8281 12.8745 33.6497C12.1658 33.4729 11.6756 33.2907 11.4061 33.1055C11.3382 33.0375 11.3127 32.8823 11.3289 32.6368C11.3452 32.3937 11.3838 32.1389 11.4432 31.8779C11.5019 31.617 11.5783 31.3823 11.671 31.1823C11.7636 30.9801 11.8516 30.8859 11.9373 30.9036C12.3766 31.0557 12.8537 31.204 13.3686 31.3468C13.8836 31.4896 14.5383 31.5614 15.3319 31.5614C16.1433 31.5614 16.8304 31.4448 17.3979 31.207C17.963 30.97 18.2471 30.5477 18.2471 29.9401C18.2471 29.4144 18.0603 28.989 17.6889 28.6601C17.3176 28.3312 16.6498 27.98 15.687 27.6102C15.1628 27.4056 14.6695 27.1825 14.2048 26.9369C13.7392 26.693 13.3308 26.405 12.9757 26.0754C12.6205 25.7465 12.3426 25.3535 12.1396 24.898C11.9365 24.4425 11.8346 23.9013 11.8346 23.276C11.8346 22.7695 11.9327 22.2878 12.1264 21.8315C12.3202 21.3752 12.6205 20.9823 13.0259 20.6534C13.4312 20.3245 13.9508 20.062 14.5846 19.8682C15.2184 19.6737 15.9742 19.5764 16.8528 19.5764C17.4264 19.5764 17.9043 19.5895 18.2842 19.6142C18.664 19.6397 18.9759 19.6737 19.2222 19.7162C19.4661 19.7586 19.6653 19.8049 19.8174 19.8559C19.9695 19.9068 20.1131 19.9485 20.2482 19.9825C20.3663 20.0327 20.4258 20.1809 20.4258 20.4256C20.4258 20.6704 20.391 20.9321 20.3239 21.2116C20.2567 21.4895 20.1633 21.735 20.0459 21.9458C19.927 22.1573 19.8089 22.2461 19.6908 22.2121C19.4036 22.128 19.0106 22.0353 18.5127 21.9342C18.0139 21.8323 17.5291 21.7821 17.0559 21.7821C16.0924 21.7821 15.43 21.918 15.0671 22.1874C14.7035 22.4576 14.5221 22.8205 14.5221 23.2768C14.5221 23.767 14.7251 24.16 15.1304 24.4549C15.5357 24.7498 16.1696 25.0501 17.0304 25.3543C18.3984 25.8947 19.4082 26.5154 20.0583 27.2164C20.7083 27.9174 21.0341 28.7999 21.0341 29.8645C21.0341 30.6589 20.882 31.3182 20.5786 31.8424C20.2737 32.3659 19.8684 32.7804 19.3619 33.0823C18.8555 33.388 18.2764 33.6026 17.6264 33.7293C16.9756 33.8536 16.3124 33.9169 15.6369 33.9169Z" fill="#E2BE50"/>
<path d="M33.9056 33.7962C33.5512 33.7962 33.3189 33.7376 33.21 33.6187C33.0988 33.5013 33.0456 33.2736 33.0456 32.9339V24.0656C32.37 25.1634 31.8489 26.0119 31.4853 26.6117C31.1209 27.2124 30.8576 27.6517 30.6878 27.9304C30.5187 28.2075 30.4168 28.3735 30.3821 28.4237C30.3489 28.4746 30.3334 28.5094 30.3334 28.5264C30.1821 28.7796 30.0756 28.944 30.0169 29.0205C29.9567 29.0984 29.8339 29.134 29.6486 29.134H29.2433C29.0241 29.134 28.8797 29.0961 28.8125 29.0205C28.7454 28.944 28.6435 28.7796 28.5083 28.5264L25.9236 24.1181V33.0883C25.9236 33.3083 25.8858 33.482 25.8093 33.6086C25.7337 33.7352 25.5353 33.7986 25.2141 33.7986H24.151C23.914 33.7986 23.7079 33.7607 23.5295 33.6843C23.3527 33.6086 23.2632 33.36 23.2632 32.9362V20.7729C23.2632 20.4347 23.3265 20.2108 23.4531 20.1012C23.5797 19.9916 23.7611 19.9368 23.9982 19.9368H25.2651C25.4503 19.9368 25.6071 19.9615 25.7337 20.0124C25.8603 20.0634 25.9908 20.19 26.1266 20.3923L29.4958 25.764L32.8657 20.4432C32.9676 20.2572 33.0888 20.1267 33.2347 20.0503C33.3791 19.9738 33.5165 19.9368 33.6524 19.9368H35.0467C35.3678 19.9368 35.5523 20.0039 35.6048 20.139C35.6558 20.2749 35.6805 20.4942 35.6805 20.7984V33.0605C35.6805 33.3137 35.6473 33.5006 35.5794 33.6194C35.5114 33.7383 35.3169 33.7962 34.9973 33.7962H33.9056Z" fill="#E2BE50"/>
<path d="M42.3434 33.9169C41.2101 33.9169 40.2914 33.8281 39.5811 33.6497C38.8724 33.4729 38.3814 33.2907 38.1127 33.1055C38.0447 33.0375 38.0193 32.8823 38.0355 32.6368C38.0517 32.3937 38.0888 32.1389 38.149 31.8779C38.2076 31.617 38.2833 31.3823 38.3767 31.1823C38.4686 30.9793 38.5566 30.8859 38.6431 30.9036C39.0824 31.0557 39.5602 31.204 40.0744 31.3468C40.5886 31.4904 41.2433 31.5614 42.0377 31.5614C42.8491 31.5614 43.5354 31.4448 44.1036 31.207C44.668 30.97 44.9536 30.5477 44.9536 29.9401C44.9536 29.4144 44.7668 28.989 44.3947 28.6601C44.0226 28.3312 43.3555 27.98 42.392 27.6102C41.8678 27.4056 41.3753 27.1825 40.9097 26.9369C40.4442 26.693 40.0358 26.405 39.6799 26.0754C39.3255 25.7465 39.0476 25.3535 38.8446 24.898C38.6408 24.4417 38.5396 23.9013 38.5396 23.276C38.5396 22.7695 38.6377 22.2878 38.8307 21.8315C39.0252 21.3752 39.3255 20.9823 39.7309 20.6534C40.1362 20.3245 40.655 20.062 41.2888 19.8682C41.9234 19.6737 42.68 19.5764 43.557 19.5764C44.1314 19.5764 44.6093 19.5895 44.9884 19.6142C45.3682 19.6397 45.6801 19.6737 45.9272 19.7162C46.1704 19.7586 46.3695 19.8049 46.5224 19.8559C46.6737 19.9061 46.8181 19.9485 46.954 19.9825C47.0713 20.0327 47.1308 20.1809 47.1308 20.4256C47.1308 20.6704 47.096 20.9321 47.0281 21.2116C46.9617 21.4895 46.8683 21.735 46.7517 21.9458C46.6328 22.1573 46.5139 22.2461 46.3958 22.2121C46.1094 22.128 45.7149 22.0353 45.2184 21.9342C44.7197 21.8323 44.2341 21.7821 43.7616 21.7821C42.7981 21.7821 42.135 21.918 41.7729 22.1874C41.4093 22.4576 41.2271 22.8205 41.2271 23.2768C41.2271 23.767 41.4309 24.16 41.8362 24.4549C42.2407 24.7498 42.8753 25.0501 43.7361 25.3543C45.1034 25.8947 46.114 26.5154 46.764 27.2164C47.4141 27.9174 47.7399 28.7999 47.7399 29.8645C47.7399 30.6589 47.5878 31.3182 47.2844 31.8424C46.9794 32.3659 46.5741 32.7804 46.0677 33.0823C45.5612 33.388 44.9822 33.6026 44.3322 33.7293C43.6798 33.8536 43.0189 33.9169 42.3434 33.9169Z" fill="#E2BE50"/>
</svg>
