<svg width="60" height="60" viewBox="0 0 60 60" fill="none" xmlns="http://www.w3.org/2000/svg">
<path fill-rule="evenodd" clip-rule="evenodd" d="M0 30C0 46.5686 13.4315 60 30 60C37.9565 60 45.5871 56.8393 51.2132 51.2132C56.8393 45.5871 60 37.9565 60 30C60 13.4315 46.5685 0 30 0C13.4315 0 0 13.4315 0 30ZM26.4988 30.0056L35.6805 20.7563H35.7367C36.4489 20.0432 36.7271 19.0038 36.4664 18.0297C36.2057 17.0555 35.4457 16.2947 34.4728 16.0336C33.4999 15.7726 32.4618 16.0511 31.7495 16.7642L20.5181 28.0096C19.9865 28.5375 19.6875 29.256 19.6875 30.0056C19.6875 30.7553 19.9865 31.4738 20.5181 32.0017L31.7495 43.2471C32.2794 43.7733 32.9968 44.0667 33.7431 44.0623C34.47 44.0519 35.1645 43.7597 35.6805 43.2471C36.2121 42.7192 36.5111 42.0006 36.5111 41.251C36.5111 40.5014 36.2121 39.7828 35.6805 39.255L26.4988 30.0056Z" fill="#3CB68A"/>
</svg>
