<svg width="42" height="40" viewBox="0 0 42 40" fill="none" xmlns="http://www.w3.org/2000/svg">
<path fill-rule="evenodd" clip-rule="evenodd" d="M0.0588379 20C0.0588379 8.95431 9.27651 0 20.6471 0C32.0176 0 41.2353 8.95431 41.2353 20C41.2353 31.0457 32.0176 40 20.6471 40C9.27651 40 0.0588379 31.0457 0.0588379 20ZM20.633 20.3211C23.669 20.3211 26.1369 18.0066 26.1369 15.1613C26.1369 12.3151 23.669 10 20.633 10C17.5977 10 15.1292 12.3151 15.1292 15.1613C15.1292 18.0066 17.5977 20.3211 20.633 20.3211ZM26.07 23.2923C25.0748 23.8784 23.9943 24.294 22.874 24.5333L25.9508 27.4188C26.5811 28.0086 26.5811 28.9665 25.9508 29.5569C25.3211 30.1474 24.3006 30.1474 23.6716 29.5569L20.6465 26.7215L17.624 29.5569C17.3089 29.8518 16.8959 29.9994 16.483 29.9994C16.0707 29.9994 15.6583 29.8518 15.3432 29.5569C14.7135 28.9665 14.7135 28.0092 15.3425 27.4188L18.4197 24.5333C17.2993 24.294 16.2188 23.8777 15.2237 23.2923C14.4705 22.847 14.2443 21.9141 14.7188 21.2072C15.192 20.4995 16.1872 20.2864 16.9417 20.7317C19.1949 22.0608 22.0975 22.0611 24.352 20.7317C25.1064 20.2864 26.1013 20.4995 26.5755 21.2072C27.05 21.9135 26.8231 22.847 26.07 23.2923Z" fill="white"/>
<path fill-rule="evenodd" clip-rule="evenodd" d="M20.6331 13.0244C21.8898 13.0244 22.912 13.9826 22.912 15.161C22.912 16.3385 21.8898 17.2973 20.6331 17.2973C19.3774 17.2973 18.3542 16.3385 18.3542 15.161C18.3542 13.9826 19.3774 13.0244 20.6331 13.0244Z" fill="white"/>
</svg>
