<svg width="42" height="40" viewBox="0 0 42 40" fill="none" xmlns="http://www.w3.org/2000/svg">
<path fill-rule="evenodd" clip-rule="evenodd" d="M0.0585938 20C0.0585938 8.95431 9.27626 0 20.6468 0C32.0174 0 41.2351 8.95431 41.2351 20C41.2351 31.0457 32.0174 40 20.6468 40C9.27626 40 0.0585938 31.0457 0.0585938 20ZM20.6328 20.3211C23.6688 20.3211 26.1366 18.0066 26.1366 15.1613C26.1366 12.3151 23.6688 10 20.6328 10C17.5975 10 15.1289 12.3151 15.1289 15.1613C15.1289 18.0066 17.5975 20.3211 20.6328 20.3211ZM26.0698 23.2923C25.0746 23.8784 23.9941 24.294 22.8737 24.5333L25.9505 27.4188C26.5809 28.0086 26.5809 28.9665 25.9505 29.5569C25.3209 30.1474 24.3003 30.1474 23.6713 29.5569L20.6463 26.7215L17.6238 29.5569C17.3086 29.8518 16.8957 29.9994 16.4827 29.9994C16.0704 29.9994 15.6581 29.8518 15.3429 29.5569C14.7133 28.9665 14.7133 28.0092 15.3423 27.4188L18.4194 24.5333C17.2991 24.294 16.2186 23.8777 15.2234 23.2923C14.4703 22.847 14.244 21.9141 14.7186 21.2072C15.1918 20.4995 16.187 20.2864 16.9414 20.7317C19.1946 22.0608 22.0972 22.0611 24.3517 20.7317C25.1062 20.2864 26.101 20.4995 26.5753 21.2072C27.0498 21.9135 26.8229 22.847 26.0698 23.2923Z" fill="#3CB68A"/>
<path fill-rule="evenodd" clip-rule="evenodd" d="M20.6324 13.0244C21.8891 13.0244 22.9112 13.9826 22.9112 15.161C22.9112 16.3385 21.8891 17.2973 20.6324 17.2973C19.3767 17.2973 18.3535 16.3385 18.3535 15.161C18.3535 13.9826 19.3767 13.0244 20.6324 13.0244Z" fill="#3CB68A"/>
</svg>
