<svg width="60" height="60" viewBox="0 0 60 60" fill="none" xmlns="http://www.w3.org/2000/svg">
<path fill-rule="evenodd" clip-rule="evenodd" d="M60 30C60 13.4314 46.5685 -2.28882e-05 30 -2.28882e-05C22.0435 -2.28882e-05 14.4129 3.16069 8.7868 8.78678C3.16071 14.4129 0 22.0435 0 30C0 46.5685 13.4315 60 30 60C46.5685 60 60 46.5685 60 30ZM33.5012 29.9944L24.3195 39.2437H24.2633C23.5511 39.9568 23.2729 40.9962 23.5336 41.9703C23.7943 42.9445 24.5543 43.7053 25.5272 43.9664C26.5001 44.2274 27.5382 43.9489 28.2505 43.2358L39.4819 31.9904C40.0135 31.4625 40.3125 30.744 40.3125 29.9944C40.3125 29.2447 40.0135 28.5262 39.4819 27.9983L28.2505 16.7529C27.7206 16.2267 27.0032 15.9333 26.2569 15.9377C25.53 15.9481 24.8355 16.2403 24.3195 16.7529C23.7879 17.2808 23.4889 17.9994 23.4889 18.749C23.4889 19.4986 23.7879 20.2172 24.3195 20.745L33.5012 29.9944Z" fill="#3CB68A"/>
</svg>
