<svg width="42" height="40" viewBox="0 0 42 40" fill="none" xmlns="http://www.w3.org/2000/svg">
<path fill-rule="evenodd" clip-rule="evenodd" d="M20.5882 40C31.9588 40 41.1765 31.0457 41.1765 20C41.1765 8.95431 31.9588 0 20.5882 0C9.21767 0 0 8.95431 0 20C0 31.0457 9.21767 40 20.5882 40ZM16.8138 29.1672C17.3145 29.1672 17.5433 28.9508 17.8199 28.6892L17.8432 28.6672L20.3163 26.3311L25.4609 30.0234C26.4077 30.5309 27.091 30.2681 27.3268 29.1695L30.7042 13.709C31.0499 12.3623 30.1757 11.7515 29.27 12.1509L9.43834 19.5794C8.08464 20.1069 8.09254 20.8405 9.19159 21.1674L14.2808 22.7105L26.063 15.4897C26.6192 15.162 27.1297 15.3382 26.7107 15.6994L17.1638 24.0686L17.1641 24.0688L16.8138 29.1672Z" fill="#3CB68A"/>
</svg>
