<svg width="20" height="20" viewBox="0 0 20 20" fill="none" xmlns="http://www.w3.org/2000/svg">
<path fill-rule="evenodd" clip-rule="evenodd" d="M17 3H16V1C16 0.447715 15.5523 0 15 0C14.4477 0 14 0.447715 14 1V3H6V1C6 0.447715 5.55228 0 5 0C4.44772 0 4 0.447715 4 1V3H3C1.34315 3 0 4.34315 0 6V17C0 18.6569 1.34315 20 3 20H17C18.6569 20 20 18.6569 20 17V6C20 4.34315 18.6569 3 17 3ZM1.99993 6.00004C1.99993 5.44775 2.44764 5.00004 2.99993 5.00004H16.9999C17.5522 5.00004 17.9999 5.44775 17.9999 6.00004V7.00004H1.99993V6.00004ZM16.9999 18C17.5522 18 17.9999 17.5523 17.9999 17V9H1.99993V17C1.99993 17.5523 2.44764 18 2.99993 18H16.9999Z" fill="#C4C4C4"/>
</svg>
