<svg width="42" height="40" viewBox="0 0 42 40" fill="none" xmlns="http://www.w3.org/2000/svg">
<path fill-rule="evenodd" clip-rule="evenodd" d="M21.1175 0C9.74696 0 0.529297 8.95431 0.529297 20C0.529297 31.0457 9.74696 40 21.1175 40C32.4881 40 41.7058 31.0457 41.7058 20C41.7058 8.95431 32.4881 0 21.1175 0ZM20.5441 16.9483L20.5009 16.2563C20.3713 14.4626 21.509 12.8243 23.3091 12.1887C23.9716 11.9627 25.0948 11.9345 25.8293 12.1322C26.1173 12.217 26.6646 12.4994 27.0534 12.7537L27.759 13.2197L28.5367 12.9796C28.9687 12.8525 29.5448 12.6407 29.804 12.4994C30.0488 12.3723 30.2648 12.3017 30.2648 12.3441C30.2648 12.5842 29.732 13.4033 29.2855 13.8553C28.6807 14.4908 28.8535 14.5473 30.0776 14.1236C30.8121 13.8835 30.8265 13.8835 30.6824 14.1519C30.596 14.2931 30.1496 14.7874 29.6744 15.2394C28.8679 16.0162 28.8247 16.1009 28.8247 16.7506C28.8247 17.7533 28.3351 19.8436 27.8454 20.9876C26.9382 23.1343 24.994 25.3517 23.0499 26.4674C20.3137 28.0351 16.6702 28.4306 13.6028 27.5126C12.5803 27.2019 10.8234 26.411 10.8234 26.2697C10.8234 26.2274 11.3562 26.1709 12.0043 26.1567C13.358 26.1285 14.7117 25.7613 15.8638 25.1116L16.6414 24.6597L15.7486 24.3631C14.4813 23.9394 13.3436 22.9649 13.0556 22.0468C12.9692 21.7502 12.998 21.7361 13.8044 21.7361L14.6397 21.722L13.934 21.3972C13.0988 20.9876 12.3355 20.2955 11.9611 19.5894C11.6875 19.0809 11.3418 17.7957 11.4427 17.6968C11.4715 17.6545 11.7739 17.7392 12.1195 17.8522C13.1132 18.2053 13.2428 18.1205 12.6667 17.5274C11.5867 16.454 11.2554 14.858 11.7739 13.3468L12.0187 12.6689L12.9692 13.5869C14.9133 15.4371 17.2031 16.5387 19.8241 16.8636L20.5441 16.9483Z" fill="white"/>
</svg>
