<svg width="42" height="40" viewBox="0 0 42 40" fill="none" xmlns="http://www.w3.org/2000/svg">
<path fill-rule="evenodd" clip-rule="evenodd" d="M21.4117 0C10.0412 0 0.823486 8.95431 0.823486 20C0.823486 31.0457 10.0412 40 21.4117 40C32.7823 40 42 31.0457 42 20C42 8.95431 32.7823 0 21.4117 0ZM23.0881 26.3138C22.8851 26.5217 22.4888 26.5637 22.4888 26.5637H21.1762C21.1762 26.5637 18.2805 26.7296 15.7295 24.1978C12.9475 21.4355 10.4911 15.9549 10.4911 15.9549C10.4911 15.9549 10.3493 15.5954 10.5029 15.4224C10.6758 15.2267 11.1473 15.2144 11.1473 15.2144L14.2848 15.195C14.2848 15.195 14.5802 15.2411 14.7918 15.3896C14.9669 15.5125 15.0646 15.7409 15.0646 15.7409C15.0646 15.7409 15.5716 16.9638 16.2429 18.0699C17.5544 20.23 18.1645 20.7022 18.6091 20.4707C19.2579 20.1337 19.0635 17.4175 19.0635 17.4175C19.0635 17.4175 19.0753 16.4322 18.737 15.9928C18.4749 15.6528 17.9808 15.5534 17.7627 15.5258C17.5855 15.5033 17.8755 15.112 18.2515 14.9369C18.8164 14.6737 19.8132 14.6583 20.9915 14.6696C21.9099 14.6788 22.1741 14.7331 22.5328 14.816C23.3654 15.0076 23.3395 15.6216 23.2834 16.9467C23.2666 17.343 23.2471 17.8029 23.2471 18.3342C23.2471 18.4536 23.2435 18.5808 23.2397 18.7117C23.2202 19.3906 23.1979 20.168 23.6671 20.4574C23.9077 20.6049 24.4952 20.4789 25.9657 18.0986C26.6628 16.9699 27.1848 15.6436 27.1848 15.6436C27.1848 15.6436 27.2997 15.407 27.4769 15.3056C27.6585 15.2021 27.9033 15.2339 27.9033 15.2339L31.2051 15.2144C31.2051 15.2144 32.1976 15.1007 32.3577 15.5289C32.5263 15.9764 31.9871 17.0232 30.638 18.7377C29.3602 20.3621 28.7374 20.9617 28.7924 21.4908C28.8328 21.8789 29.2377 22.229 30.0161 22.9175C31.6378 24.3532 32.0725 25.1086 32.1769 25.29C32.1855 25.3051 32.1919 25.3162 32.1965 25.3234C32.9237 26.4736 31.3899 26.5637 31.3899 26.5637L28.4565 26.6026C28.4565 26.6026 27.8271 26.7215 26.9979 26.1786C26.5635 25.8945 26.1391 25.4305 25.7348 24.9885C25.1174 24.3135 24.547 23.69 24.0602 23.8373C23.2428 24.0851 23.2675 25.7638 23.2675 25.7638C23.2675 25.7638 23.274 26.1233 23.0881 26.3138Z" fill="white"/>
</svg>
