<svg width="42" height="40" viewBox="0 0 42 40" fill="none" xmlns="http://www.w3.org/2000/svg">
<path fill-rule="evenodd" clip-rule="evenodd" d="M21.4115 0C10.0409 0 0.823242 8.95431 0.823242 20C0.823242 31.0457 10.0409 40 21.4115 40C32.782 40 41.9997 31.0457 41.9997 20C41.9997 8.95431 32.782 0 21.4115 0ZM23.0879 26.3138C22.8849 26.5217 22.4886 26.5637 22.4886 26.5637H21.176C21.176 26.5637 18.2802 26.7296 15.7292 24.1978C12.9473 21.4355 10.4908 15.9549 10.4908 15.9549C10.4908 15.9549 10.349 15.5954 10.5026 15.4224C10.6756 15.2267 11.1471 15.2144 11.1471 15.2144L14.2846 15.195C14.2846 15.195 14.5799 15.2411 14.7915 15.3896C14.9666 15.5125 15.0644 15.7409 15.0644 15.7409C15.0644 15.7409 15.5713 16.9638 16.2426 18.0699C17.5541 20.23 18.1642 20.7022 18.6089 20.4707C19.2577 20.1337 19.0632 17.4175 19.0632 17.4175C19.0632 17.4175 19.0751 16.4322 18.7367 15.9928C18.4746 15.6528 17.9805 15.5534 17.7625 15.5258C17.5853 15.5033 17.8753 15.112 18.2512 14.9369C18.8162 14.6737 19.813 14.6583 20.9913 14.6696C21.9096 14.6788 22.1738 14.7331 22.5326 14.816C23.3652 15.0076 23.3392 15.6216 23.2831 16.9467C23.2663 17.343 23.2469 17.8029 23.2469 18.3342C23.2469 18.4536 23.2432 18.5808 23.2395 18.7117C23.22 19.3906 23.1977 20.168 23.6668 20.4574C23.9074 20.6049 24.495 20.4789 25.9654 18.0986C26.6625 16.9699 27.1845 15.6436 27.1845 15.6436C27.1845 15.6436 27.2995 15.407 27.4767 15.3056C27.6582 15.2021 27.9031 15.2339 27.9031 15.2339L31.2049 15.2144C31.2049 15.2144 32.1974 15.1007 32.3574 15.5289C32.526 15.9764 31.9868 17.0232 30.6378 18.7377C29.36 20.3621 28.7372 20.9617 28.7922 21.4908C28.8326 21.8789 29.2374 22.229 30.0159 22.9175C31.6375 24.3532 32.0722 25.1086 32.1766 25.29C32.1853 25.3051 32.1917 25.3162 32.1963 25.3234C32.9235 26.4736 31.3896 26.5637 31.3896 26.5637L28.4563 26.6026C28.4563 26.6026 27.8268 26.7215 26.9976 26.1786C26.5633 25.8945 26.1388 25.4305 25.7345 24.9885C25.1171 24.3135 24.5468 23.69 24.06 23.8373C23.2426 24.0851 23.2673 25.7638 23.2673 25.7638C23.2673 25.7638 23.2737 26.1233 23.0879 26.3138Z" fill="#3CB68A"/>
</svg>
