<svg width="30" height="30" viewBox="0 0 30 30" fill="none" xmlns="http://www.w3.org/2000/svg">
<path d="M29.5566 27.4253C29.8404 27.7068 30 28.0899 30 28.4897C30 28.8894 29.8404 29.2725 29.5566 29.554C29.2751 29.8378 28.8919 29.9975 28.4922 29.9975C28.0925 29.9975 27.7093 29.8378 27.4278 29.554L15 17.1112L2.57221 29.554C2.29072 29.8378 1.90755 29.9975 1.50782 29.9975C1.1081 29.9975 0.724927 29.8378 0.44344 29.554C0.159636 29.2725 0 28.8894 0 28.4897C0 28.0899 0.159636 27.7068 0.44344 27.4253L12.8862 14.9975L0.44344 2.56968C0.063173 2.18941 -0.0853383 1.63516 0.0538492 1.11571C0.193037 0.596253 0.598777 0.190512 1.11823 0.0513249C1.63769 -0.0878626 2.19194 0.0606487 2.57221 0.440916L15 12.8837L27.4278 0.440916C28.0156 -0.146926 28.9687 -0.146926 29.5566 0.440916C30.1444 1.02876 30.1444 1.98184 29.5566 2.56968L17.1138 14.9975L29.5566 27.4253Z" fill="white"/>
</svg>
