<svg width="58" height="66" viewBox="0 0 58 66" fill="none" xmlns="http://www.w3.org/2000/svg">
<path d="M56.119 44.3598C55.319 43.6399 53.719 42.9999 51.2391 43.7199L41.7193 46.2798C41.516 46.3258 41.3243 46.4132 41.1562 46.5365C40.9881 46.6597 40.8471 46.8163 40.7421 46.9964C40.637 47.1764 40.5702 47.3762 40.5456 47.5832C40.5211 47.7902 40.5394 48.0001 40.5994 48.1997C40.6547 48.4061 40.7507 48.5993 40.8819 48.7679C41.0131 48.9366 41.1767 49.0772 41.3631 49.1816C41.5495 49.286 41.7549 49.352 41.9672 49.3757C42.1796 49.3994 42.3945 49.3804 42.5993 49.3197L52.0391 46.7598C52.3854 46.6248 52.7558 46.5623 53.1273 46.576C53.4988 46.5898 53.8636 46.6795 54.199 46.8398C54.4543 47.0941 54.5981 47.4394 54.599 47.7997C54.599 47.8797 54.519 48.6797 52.1191 50.1197L35.3995 61.3994C34.3568 62.0912 33.1518 62.4993 31.9032 62.5835C30.6547 62.6677 29.4058 62.425 28.2797 61.8794L13.5601 56.2795H9.80018V46.5998H22.6798L33.7995 49.8797C34.2048 50.0093 34.5457 50.2878 34.7536 50.659C34.9615 51.0302 35.0208 51.4664 34.9195 51.8796C34.807 52.2787 34.5439 52.6185 34.1858 52.8275C33.8276 53.0364 33.4023 53.0981 32.9996 52.9996L24.8398 50.5997C24.6407 50.5257 24.4283 50.4942 24.2163 50.5074C24.0044 50.5205 23.7975 50.5779 23.6091 50.6759C23.4206 50.7739 23.2548 50.9103 23.1223 51.0763C22.9898 51.2423 22.8936 51.4342 22.8398 51.6396C22.7142 52.0428 22.753 52.4792 22.9478 52.8539C23.1426 53.2285 23.4776 53.5109 23.8798 53.6396L32.1196 56.0395C32.5004 56.196 32.9079 56.2775 33.3196 56.2795C34.3824 56.2778 35.4146 55.9235 36.2543 55.272C37.094 54.6205 37.6937 53.7087 37.9594 52.6796C38.1284 52.0755 38.1752 51.4438 38.0972 50.8213C38.0192 50.1989 37.8179 49.5983 37.5051 49.0546C37.1922 48.5108 36.7742 48.0349 36.2753 47.6546C35.7764 47.2744 35.2067 46.9973 34.5995 46.8398L23.3198 43.4799H9.80018V41.7999C9.80018 41.3756 9.63162 40.9686 9.33157 40.6686C9.03152 40.3685 8.62456 40.2 8.20023 40.2H1.8004C1.37606 40.2 0.969107 40.3685 0.669056 40.6686C0.369006 40.9686 0.200439 41.3756 0.200439 41.7999V60.9994C0.200439 61.4237 0.369006 61.8307 0.669056 62.1307C0.969107 62.4308 1.37606 62.5994 1.8004 62.5994H8.20023C8.62456 62.5994 9.03152 62.4308 9.33157 62.1307C9.63162 61.8307 9.80018 61.4237 9.80018 60.9994V59.3994H12.6801L27.0797 64.8393C28.5198 65.4623 30.0706 65.7888 31.6396 65.7993C33.6557 65.8051 35.6197 65.1597 37.2395 63.9593L53.799 52.8396C54.759 52.2796 57.7989 50.5197 57.7989 47.7997C57.8148 47.1338 57.6705 46.4737 57.3781 45.8751C57.0858 45.2764 56.654 44.7568 56.119 44.3598ZM6.60027 59.3994H3.40035V43.3999H6.60027V59.3994Z" fill="#3CB68A"/>
<path d="M31.4315 35.8003C31.2182 35.8003 31.0369 35.7203 30.8875 35.5603C30.7382 35.4003 30.6635 35.2083 30.6635 34.9843V32.9684H25.3357C25.0904 32.9684 24.8984 32.8937 24.7597 32.7444C24.621 32.595 24.541 32.4244 24.5197 32.2324C24.509 32.0297 24.5624 31.8484 24.6797 31.6884L30.8075 23.6566C30.8929 23.55 30.9889 23.4646 31.0955 23.4006C31.2129 23.3366 31.3409 23.3046 31.4795 23.3046C31.7035 23.3046 31.8848 23.3846 32.0235 23.5446C32.1622 23.7046 32.2315 23.9019 32.2315 24.1366V31.4964H33.1915C33.4155 31.4964 33.6075 31.5497 33.7675 31.6564C33.9274 31.7631 34.0074 31.9551 34.0074 32.2324C34.0074 32.435 33.9274 32.611 33.7675 32.7604C33.6075 32.899 33.4155 32.9684 33.1915 32.9684H32.2315V34.9843C32.2315 35.2083 32.1568 35.4003 32.0075 35.5603C31.8582 35.7203 31.6662 35.8003 31.4315 35.8003ZM30.6635 31.4964V26.2005L26.6316 31.4964H30.6635ZM39.2764 35.8003C38.0605 35.8003 37.1165 35.251 36.4445 34.1523C35.7832 33.043 35.4525 31.5071 35.4525 29.5445C35.4525 27.5712 35.7832 26.0352 36.4445 24.9366C37.1165 23.8379 38.0605 23.2886 39.2764 23.2886C40.0871 23.2886 40.7751 23.5446 41.3404 24.0566C41.9164 24.5579 42.3537 25.2779 42.6523 26.2165C42.951 27.1445 43.1003 28.2538 43.1003 29.5445C43.1003 30.8351 42.951 31.9497 42.6523 32.8884C42.3537 33.8163 41.9164 34.5363 41.3404 35.0483C40.7751 35.5496 40.0871 35.8003 39.2764 35.8003ZM39.2764 34.1363C39.7671 34.1363 40.1724 33.939 40.4924 33.5444C40.8124 33.139 41.0524 32.5897 41.2124 31.8964C41.3724 31.2031 41.4524 30.4191 41.4524 29.5445C41.4524 28.6698 41.3724 27.8858 41.2124 27.1925C41.0524 26.4992 40.8124 25.9499 40.4924 25.5446C40.1724 25.1392 39.7671 24.9366 39.2764 24.9366C38.7858 24.9366 38.3805 25.1392 38.0605 25.5446C37.7405 25.9392 37.5005 26.4832 37.3405 27.1765C37.1805 27.8698 37.1005 28.6591 37.1005 29.5445C37.1005 30.4298 37.1805 31.2191 37.3405 31.9124C37.5005 32.6057 37.7405 33.1497 38.0605 33.5444C38.3911 33.939 38.7964 34.1363 39.2764 34.1363Z" fill="#E2BE50"/>
<path d="M30.6635 32.9684H31.0635V32.5684H30.6635V32.9684ZM24.7597 32.7444L25.0528 32.4722H25.0528L24.7597 32.7444ZM24.5197 32.2324L24.1203 32.2534L24.1209 32.265L24.1222 32.2766L24.5197 32.2324ZM24.6797 31.6884L24.3616 31.4457L24.3571 31.4519L24.6797 31.6884ZM30.8075 23.6566L30.4951 23.4067L30.4895 23.414L30.8075 23.6566ZM31.0955 23.4006L30.904 23.0495L30.8968 23.0534L30.8897 23.0576L31.0955 23.4006ZM32.2315 31.4964H31.8315V31.8964H32.2315V31.4964ZM33.7675 31.6564L33.9893 31.3236L33.7675 31.6564ZM33.7675 32.7604L34.0294 33.0626L34.035 33.0578L34.0404 33.0528L33.7675 32.7604ZM32.2315 32.9684V32.5684H31.8315V32.9684H32.2315ZM30.6635 31.4964V31.8964H31.0635V31.4964H30.6635ZM30.6635 26.2005H31.0635V25.0148L30.3453 25.9583L30.6635 26.2005ZM26.6316 31.4964L26.3134 31.2541L25.8244 31.8964H26.6316V31.4964ZM31.4315 35.4003C31.3323 35.4003 31.2558 35.3687 31.1799 35.2874L30.5951 35.8332C30.8179 36.0719 31.1041 36.2003 31.4315 36.2003V35.4003ZM31.1799 35.2874C31.1015 35.2034 31.0635 35.1096 31.0635 34.9843H30.2635C30.2635 35.307 30.3749 35.5973 30.5951 35.8332L31.1799 35.2874ZM31.0635 34.9843V32.9684H30.2635V34.9843H31.0635ZM30.6635 32.5684H25.3357V33.3684H30.6635V32.5684ZM25.3357 32.5684C25.177 32.5684 25.1006 32.5236 25.0528 32.4722L24.4666 33.0165C24.6961 33.2638 25.0037 33.3684 25.3357 33.3684V32.5684ZM25.0528 32.4722C24.9691 32.382 24.9286 32.2901 24.9172 32.1882L24.1222 32.2766C24.1535 32.5586 24.273 32.8081 24.4666 33.0165L25.0528 32.4722ZM24.9191 32.2114C24.9132 32.0986 24.9408 32.0087 25.0022 31.9249L24.3571 31.4519C24.1839 31.6881 24.1049 31.9609 24.1203 32.2534L24.9191 32.2114ZM24.9977 31.931L31.1255 23.8992L30.4895 23.414L24.3617 31.4458L24.9977 31.931ZM31.1199 23.9065C31.1784 23.8333 31.2392 23.7809 31.3013 23.7436L30.8897 23.0576C30.7385 23.1484 30.6073 23.2666 30.4952 23.4067L31.1199 23.9065ZM31.2871 23.7518C31.3434 23.721 31.4052 23.7046 31.4795 23.7046V22.9046C31.2765 22.9046 31.0823 22.9522 30.904 23.0495L31.2871 23.7518ZM31.4795 23.7046C31.5952 23.7046 31.6634 23.7399 31.7212 23.8066L32.3258 23.2827C32.1063 23.0294 31.8119 22.9046 31.4795 22.9046V23.7046ZM31.7212 23.8066C31.7899 23.8858 31.8315 23.987 31.8315 24.1366H32.6315C32.6315 23.8169 32.5344 23.5234 32.3258 23.2827L31.7212 23.8066ZM31.8315 24.1366V31.4964H32.6315V24.1366H31.8315ZM32.2315 31.8964H33.1915V31.0964H32.2315V31.8964ZM33.1915 31.8964C33.3498 31.8964 33.4616 31.9332 33.5456 31.9892L33.9893 31.3236C33.7533 31.1663 33.4811 31.0964 33.1915 31.0964V31.8964ZM33.5456 31.9892C33.5501 31.9923 33.6075 32.0252 33.6075 32.2324H34.4074C34.4074 31.8849 34.3048 31.5339 33.9893 31.3236L33.5456 31.9892ZM33.6075 32.2324C33.6075 32.3147 33.5807 32.3875 33.4945 32.468L34.0404 33.0528C34.2742 32.8346 34.4074 32.5554 34.4074 32.2324H33.6075ZM33.5055 32.4581C33.4227 32.5299 33.3253 32.5684 33.1915 32.5684V33.3684C33.5056 33.3684 33.7922 33.2682 34.0294 33.0626L33.5055 32.4581ZM33.1915 32.5684H32.2315V33.3684H33.1915V32.5684ZM31.8315 32.9684V34.9843H32.6315V32.9684H31.8315ZM31.8315 34.9843C31.8315 35.1096 31.7935 35.2034 31.7151 35.2874L32.2999 35.8332C32.5202 35.5973 32.6315 35.307 32.6315 34.9843H31.8315ZM31.7151 35.2874C31.6473 35.36 31.5643 35.4003 31.4315 35.4003V36.2003C31.7681 36.2003 32.069 36.0806 32.2999 35.8332L31.7151 35.2874ZM31.0635 31.4964V26.2005H30.2635V31.4964H31.0635ZM30.3453 25.9583L26.3134 31.2541L26.9499 31.7387L30.9818 26.4428L30.3453 25.9583ZM26.6316 31.8964H30.6635V31.0964H26.6316V31.8964ZM36.4445 34.1523L36.1009 34.3572L36.1033 34.361L36.4445 34.1523ZM36.4445 24.9366L36.1033 24.7279L36.1018 24.7303L36.4445 24.9366ZM41.3404 24.0566L41.0718 24.3531L41.0778 24.3583L41.3404 24.0566ZM42.6523 26.2165L42.2712 26.3378L42.2716 26.3391L42.6523 26.2165ZM42.6523 32.8884L43.0331 33.0109L43.0335 33.0096L42.6523 32.8884ZM41.3404 35.0483L41.6058 35.3476L41.6061 35.3473L41.3404 35.0483ZM40.4924 33.5444L40.8031 33.7963L40.8063 33.7922L40.4924 33.5444ZM41.2124 31.8964L41.6021 31.9863L41.2124 31.8964ZM41.2124 27.1925L41.6021 27.1026L41.2124 27.1925ZM38.0605 25.5446L38.3712 25.7965L38.3744 25.7924L38.0605 25.5446ZM38.0605 33.5444L37.7497 33.7963L37.7539 33.8012L38.0605 33.5444ZM39.2764 35.4003C38.2094 35.4003 37.3902 34.932 36.7857 33.9436L36.1033 34.361C36.8427 35.57 37.9115 36.2003 39.2764 36.2003V35.4003ZM36.7881 33.9475C36.1781 32.9243 35.8525 31.4696 35.8525 29.5445H35.0525C35.0525 31.5446 35.3883 33.1617 36.1009 34.3572L36.7881 33.9475ZM35.8525 29.5445C35.8525 27.6078 36.1784 26.1543 36.7872 25.1429L36.1018 24.7303C35.388 25.9162 35.0525 27.5345 35.0525 29.5445H35.8525ZM36.7857 25.1453C37.3902 24.157 38.2094 23.6886 39.2764 23.6886V22.8886C37.9115 22.8886 36.8427 23.5189 36.1033 24.7279L36.7857 25.1453ZM39.2764 23.6886C39.9946 23.6886 40.585 23.9122 41.0719 24.3531L41.6089 23.7601C40.9651 23.1771 40.1795 22.8886 39.2764 22.8886V23.6886ZM41.0778 24.3583C41.5846 24.7994 41.9884 25.4492 42.2712 26.3378L43.0335 26.0953C42.7189 25.1067 42.2482 24.3164 41.603 23.7549L41.0778 24.3583ZM42.2716 26.3391C42.5541 27.217 42.7003 28.2828 42.7003 29.5445H43.5003C43.5003 28.2249 43.3479 27.072 43.0331 26.094L42.2716 26.3391ZM42.7003 29.5445C42.7003 30.8059 42.5542 31.8777 42.2712 32.7671L43.0335 33.0096C43.3478 32.0218 43.5003 30.8642 43.5003 29.5445H42.7003ZM42.2716 32.7658C41.9891 33.6436 41.5848 34.2959 41.0746 34.7494L41.6061 35.3473C42.2479 34.7768 42.7183 33.9891 43.0331 33.0109L42.2716 32.7658ZM41.075 34.749C40.5884 35.1805 39.997 35.4003 39.2764 35.4003V36.2003C40.1771 36.2003 40.9617 35.9188 41.6058 35.3476L41.075 34.749ZM39.2764 34.5363C39.8925 34.5363 40.4103 34.2807 40.8031 33.7963L40.1817 33.2924C39.9345 33.5973 39.6416 33.7363 39.2764 33.7363V34.5363ZM40.8063 33.7922C41.1741 33.3264 41.4336 32.7168 41.6021 31.9863L40.8226 31.8065C40.6712 32.4627 40.4507 32.9516 40.1785 33.2965L40.8063 33.7922ZM41.6021 31.9863C41.7703 31.2577 41.8524 30.4428 41.8524 29.5445H41.0524C41.0524 30.3954 40.9745 31.1484 40.8226 31.8065L41.6021 31.9863ZM41.8524 29.5445C41.8524 28.6462 41.7703 27.8312 41.6021 27.1026L40.8226 27.2825C40.9745 27.9405 41.0524 28.6935 41.0524 29.5445H41.8524ZM41.6021 27.1026C41.4336 26.3722 41.1741 25.7625 40.8063 25.2967L40.1785 25.7924C40.4507 26.1373 40.6712 26.6263 40.8226 27.2825L41.6021 27.1026ZM40.8063 25.2967C40.4151 24.8011 39.8968 24.5366 39.2764 24.5366V25.3366C39.6374 25.3366 39.9297 25.4773 40.1785 25.7924L40.8063 25.2967ZM39.2764 24.5366C38.6561 24.5366 38.1378 24.8011 37.7465 25.2967L38.3744 25.7924C38.6232 25.4773 38.9154 25.3366 39.2764 25.3366V24.5366ZM37.7498 25.2927C37.3793 25.7496 37.1193 26.3562 36.9507 27.0866L37.7302 27.2665C37.8817 26.6102 38.1017 26.1288 38.3712 25.7965L37.7498 25.2927ZM36.9507 27.0866C36.7825 27.8155 36.7005 28.6359 36.7005 29.5445H37.5005C37.5005 28.6824 37.5785 27.9242 37.7302 27.2665L36.9507 27.0866ZM36.7005 29.5445C36.7005 30.453 36.7825 31.2734 36.9507 32.0023L37.7302 31.8225C37.5785 31.1648 37.5005 30.4065 37.5005 29.5445H36.7005ZM36.9507 32.0023C37.1193 32.7327 37.3793 33.3393 37.7498 33.7963L38.3712 33.2924C38.1017 32.9601 37.8817 32.4787 37.7302 31.8225L36.9507 32.0023ZM37.7539 33.8012C38.1542 34.2791 38.6686 34.5363 39.2764 34.5363V33.7363C38.9242 33.7363 38.628 33.5989 38.3671 33.2875L37.7539 33.8012Z" fill="#E2BE50"/>
<path d="M14.456 14.2009C14.2427 14.2009 14.056 14.1209 13.896 13.9609C13.736 13.8009 13.656 13.6089 13.656 13.3849V3.62521L12.488 4.12119C12.3067 4.19586 12.1361 4.23319 11.9761 4.23319C11.7414 4.23319 11.5441 4.15853 11.3841 4.0092C11.2347 3.85987 11.1601 3.66787 11.1601 3.43321C11.1601 3.26255 11.2027 3.10789 11.2881 2.96923C11.3734 2.83056 11.5067 2.72923 11.6881 2.66523L14.184 1.76926C14.2373 1.74792 14.2907 1.73192 14.344 1.72126C14.3973 1.71059 14.4453 1.70526 14.488 1.70526C14.7333 1.70526 14.9253 1.78526 15.064 1.94525C15.2133 2.09458 15.288 2.29191 15.288 2.53724V13.3849C15.288 13.6089 15.208 13.8009 15.048 13.9609C14.888 14.1209 14.6907 14.2009 14.456 14.2009Z" fill="#E2BE50"/>
<path d="M13.656 3.62521H14.056V3.02079L13.4997 3.25704L13.656 3.62521ZM12.488 4.12119L12.6404 4.49108L12.6444 4.48936L12.488 4.12119ZM11.3841 4.0092L11.1011 4.2922L11.1112 4.30161L11.3841 4.0092ZM11.6881 2.66523L11.8212 3.04243L11.8232 3.0417L11.6881 2.66523ZM14.184 1.76926L14.3191 2.14573L14.3259 2.1433L14.3326 2.14064L14.184 1.76926ZM15.064 1.94525L14.7617 2.20722L14.7711 2.218L14.7811 2.22809L15.064 1.94525ZM15.048 13.9609L15.3308 14.2438V14.2438L15.048 13.9609ZM14.456 13.8009C14.3557 13.8009 14.2689 13.7681 14.1788 13.6781L13.6132 14.2438C13.8431 14.4737 14.1296 14.6009 14.456 14.6009V13.8009ZM14.1788 13.6781C14.093 13.5923 14.056 13.5017 14.056 13.3849H13.256C13.256 13.7162 13.379 14.0096 13.6132 14.2438L14.1788 13.6781ZM14.056 13.3849V3.62521H13.256V13.3849H14.056ZM13.4997 3.25704L12.3317 3.75303L12.6444 4.48936L13.8124 3.99338L13.4997 3.25704ZM12.3358 3.75133C12.1921 3.81047 12.0735 3.8332 11.9761 3.8332V4.63318C12.1987 4.63318 12.4213 4.58125 12.6403 4.49106L12.3358 3.75133ZM11.9761 3.8332C11.8347 3.8332 11.7373 3.79171 11.657 3.71678L11.1112 4.30161C11.3509 4.52535 11.6481 4.63318 11.9761 4.63318V3.8332ZM11.6669 3.72636C11.6013 3.66071 11.5601 3.57471 11.5601 3.43321H10.7601C10.7601 3.76104 10.8682 4.05902 11.1012 4.29203L11.6669 3.72636ZM11.5601 3.43321C11.5601 3.33284 11.5841 3.25137 11.6287 3.17886L10.9474 2.75959C10.8214 2.9644 10.7601 3.19226 10.7601 3.43321H11.5601ZM11.6287 3.17886C11.6578 3.1317 11.7099 3.08171 11.8212 3.04242L11.5549 2.28805C11.3036 2.37675 11.0891 2.52943 10.9474 2.75959L11.6287 3.17886ZM11.8232 3.0417L14.3191 2.14573L14.0489 1.39279L11.5529 2.28877L11.8232 3.0417ZM14.3326 2.14064C14.3645 2.12787 14.3944 2.1191 14.4224 2.11348L14.2656 1.32904C14.187 1.34475 14.1102 1.36798 14.0354 1.39788L14.3326 2.14064ZM14.4224 2.11348C14.4566 2.10665 14.4777 2.10525 14.488 2.10525V1.30527C14.413 1.30527 14.3381 1.31454 14.2656 1.32904L14.4224 2.11348ZM14.488 2.10525C14.6377 2.10525 14.7114 2.14921 14.7617 2.20722L15.3662 1.68329C15.1392 1.42131 14.8289 1.30527 14.488 1.30527V2.10525ZM14.7811 2.22809C14.8433 2.29024 14.888 2.37945 14.888 2.53724H15.688C15.688 2.20437 15.5833 1.89893 15.3468 1.66242L14.7811 2.22809ZM14.888 2.53724V13.3849H15.688V2.53724H14.888ZM14.888 13.3849C14.888 13.5017 14.851 13.5923 14.7651 13.6781L15.3308 14.2438C15.565 14.0096 15.688 13.7162 15.688 13.3849H14.888ZM14.7651 13.6781C14.6832 13.76 14.589 13.8009 14.456 13.8009V14.6009C14.7923 14.6009 15.0928 14.4818 15.3308 14.2438L14.7651 13.6781Z" fill="#E2BE50"/>
<line x1="34.5996" y1="8.29784" x2="15.4972" y2="27.4003" stroke="#E2BE50" stroke-width="2.39994" stroke-linecap="round" stroke-linejoin="round"/>
</svg>
