<svg width="167" height="37" viewBox="0 0 167 37" fill="none" xmlns="http://www.w3.org/2000/svg">
<path fill-rule="evenodd" clip-rule="evenodd" d="M167 0.100098H164.259H163.277H162.198H162.1H151.797H148.068C147.479 0.100098 146.792 0.399902 146.4 0.800293L144.634 2.7002L143.947 3.3999L143.26 4.1001L141.985 5.5L141.298 6.2002L140.611 6.8999L133.938 14.1001C133.761 14.2803 133.644 14.4604 133.587 14.6226C133.517 14.8198 133.536 14.9902 133.644 15.1001L133.938 15.5L135.214 16.8999C135.214 16.8999 135.252 16.978 135.328 17.085C135.375 17.1499 135.434 17.2251 135.508 17.3003C135.705 17.5 136.097 17.3003 136.49 17L143.162 9.80029L143.849 9.1001L144.536 8.3999L145.811 7L146.498 6.30029L147.185 5.6001L148.363 4.3999C148.755 4 149.442 3.7002 150.031 3.7002H160.333C160.457 3.7002 160.564 3.71777 160.667 3.74561C160.81 3.78418 160.948 3.84229 161.119 3.8999L161.315 3.7002H164.455C164.418 3.6626 164.409 3.63916 164.422 3.62451C164.445 3.6001 164.529 3.6001 164.651 3.6001C164.749 3.6001 165.24 3.30029 165.534 2.8999L167 1.30664V0.100098ZM167 2.70605L166.319 3.3999L165.632 4.1001L164.356 5.5L163.67 6.2002L162.983 6.8999L157.193 13.2002L157.292 13.3003L155.82 14.8003L155.133 15.5L154.446 16.2002L153.17 17.6001L152.483 18.3003L151.797 19L144.438 26.8999L143.75 27.6001L143.064 28.3003L141.788 29.7002L141.101 30.3999L140.414 31.1001L139.237 32.3003C139.02 32.521 138.714 32.7109 138.384 32.8374C138.215 32.9023 138.04 32.9502 137.866 32.9766C137.766 32.9917 137.666 33 137.569 33H131.583C131.546 33 131.523 32.9858 131.509 32.9683C131.485 32.939 131.485 32.8999 131.485 32.8999H131.387H127.168H122.948H122.85C122.85 32.8999 122.822 32.8999 122.796 32.9155C122.773 32.9287 122.752 32.9536 122.752 33H116.767C116.178 33 115.491 32.7002 115.099 32.3003L114.412 31.6001L114.117 31.3003L114.107 31.2998L114.097 31.2979C114.088 31.2959 114.076 31.292 114.064 31.2856C114.041 31.2725 114.019 31.2476 114.019 31.2002L113.136 30.3003L113.823 29.6001L116.08 27.1001C116.235 26.9424 116.359 26.7998 116.453 26.6855C116.517 26.6069 116.567 26.5415 116.603 26.4932C116.646 26.4331 116.668 26.3999 116.668 26.3999L117.355 25.7002L121.182 21.6001C121.378 21.2002 118.925 18.3999 118.631 18.7002L118.533 18.8003L111.174 26.7002L110.487 27.3999L103.127 19.5C103.03 19.4004 102.932 19.3193 102.837 19.2568C102.552 19.0688 102.294 19.0498 102.146 19.2002L101.852 19.6001L100.576 21C100.576 21 100.38 21.2002 100.282 21.3999C100.086 21.6001 100.282 22.1001 100.576 22.3999L107.936 30.3003L107.249 31L106.071 32.2002C105.679 32.6001 104.992 32.8999 104.403 32.8999L89.7827 32.8003H89.6846C89.6284 32.8003 89.5083 32.8979 89.3425 33.0566C89.218 33.1758 89.0679 33.3286 88.8997 33.5L86.8391 35.8003C86.4465 36.2002 86.2502 36.5 86.2502 36.5H86.937H87.624H106.365C106.511 36.5 106.663 36.4814 106.815 36.4478C106.921 36.4243 107.027 36.3936 107.131 36.356C107.24 36.3164 107.348 36.27 107.451 36.2173C107.526 36.1787 107.599 36.1367 107.669 36.0923C107.806 36.0044 107.93 35.9058 108.034 35.8003L109.8 33.8999L110.487 33.2002L112.94 35.8003L113.038 35.8999L113.627 36.5H114.608H119.22H119.906H120.594H128.836H129.915H130.896H133.349H134.036H134.723H139.335C139.924 36.5 140.611 36.2002 141.003 35.8003L142.769 33.8999L143.456 33.2002L144.143 32.5L145.419 31.1001L146.105 30.3999L146.792 29.7002L154.152 21.8003L154.838 21.1001L155.525 20.3999L156.801 19L157.488 18.3003L158.175 17.6001L167 8.10596V2.70605ZM167 27.106L166.515 27.6001L165.828 28.2998L164.553 29.6997L163.866 30.3999L163.179 31.1001L162.001 32.2998C161.609 32.6997 160.922 33 160.333 33H154.544H154.446H150.129C149.442 33 148.657 32.6997 148.264 32.2998L147.774 31.6997C147.6 31.5225 147.426 31.4043 147.269 31.3447C147.072 31.27 146.902 31.2886 146.792 31.3999L146.498 31.7998L145.222 33.1997C145.222 33.1997 145.146 33.2773 145.066 33.3838L145.029 33.4351L144.993 33.4868C144.969 33.5239 144.947 33.562 144.928 33.6001C144.732 33.7998 144.928 34.2998 145.222 34.6001L146.4 35.8999C146.792 36.2998 147.479 36.6001 148.068 36.6001H154.74H159.45H162.296C162.885 36.6001 163.572 36.2998 163.964 35.8999L165.73 34L166.417 33.2998L167 32.7061V27.106ZM1.86426 6.8999L0.588623 8.2998L0 8.7998V3.2002L0.588623 2.6001L2.35498 0.700195C2.74756 0.299805 3.43433 0 4.02295 0H4.51367H6.57422H28.6521C29.2407 0 29.9275 0.299805 30.3201 0.700195L31.4976 2C31.613 2.11768 31.7134 2.26562 31.7808 2.41504C31.8049 2.46875 31.825 2.52246 31.8398 2.57422C31.8516 2.61523 31.8604 2.65576 31.8655 2.69434C31.8821 2.81934 31.8621 2.92871 31.792 3C31.5957 3.1001 31.4976 3.2998 31.4976 3.2998L30.2219 4.7002L29.9277 5.1001C29.8665 5.1626 29.7861 5.1958 29.6929 5.19971C29.5996 5.20361 29.4932 5.17871 29.3796 5.12451C29.2422 5.05908 29.0942 4.95068 28.9463 4.7998L28.4558 4.2002C28.0632 3.7998 27.3765 3.5 26.7876 3.5H20.7041H20.4097H6.08374C5.49487 3.5 4.80811 3.7998 4.41553 4.2002L4.31738 4.3999L3.63062 5.1001L3.43433 5.2998L3.23804 5.5L2.55127 6.2002L1.86426 6.8999ZM1.86426 31.0996L0.588623 32.5L0 33V27.3999L0.588623 26.7998L7.948 18.8999L8.04614 18.7998C8.34058 18.5 10.7935 21.2998 10.5974 21.6997L6.77051 25.7998C6.47607 26.1997 6.18188 26.5 6.18188 26.5L5.49487 27.1997L3.23804 29.6997L2.55127 30.3999L1.86426 31.0996ZM1.09351 9.27393C1.06055 9.31445 1.02319 9.35742 0.981201 9.3999C0.784912 9.6001 0.981201 10.1001 1.27539 10.3999L5.00415 14.3999C6.47607 16.2002 12.1672 22.1001 12.5596 22.5L15.209 25.3003L15.8958 26L15.9939 26.1001L16.2883 26.3999C16.2883 26.3999 16.3213 26.4336 16.3682 26.4619C16.4021 26.4824 16.4434 26.5 16.4846 26.5C16.5833 26.5503 16.6816 26.5752 16.7676 26.5625C16.8003 26.5576 16.8313 26.5469 16.8599 26.5303C16.9058 26.5039 16.9451 26.4614 16.9751 26.3999L17.2695 26L20.5076 22.5C20.9001 22.1001 20.9983 21.7002 20.802 21.5L20.5076 21.1001L19.2319 19.7002C19.2319 19.7002 19.1338 19.5 18.9377 19.3003C18.7415 19.1001 18.3489 19.3003 17.9565 19.6001L16.6809 21L15.4053 19.6001L14.7183 18.8999L14.0649 18.186L12.8369 16.8477C12.0034 15.9409 11.0276 14.8828 10.2046 14V13.8999L8.53662 12.2002L4.31738 7.7002L3.63037 7C3.63037 7 3.59521 7 3.56689 6.97852C3.5481 6.96387 3.53223 6.93994 3.53223 6.8999C3.48242 6.84961 3.40771 6.8501 3.33325 6.88867C3.2605 6.92676 3.18823 7.00146 3.13989 7.1001L2.55103 7.6001L1.27539 9C1.27539 9 1.26343 9.02441 1.23975 9.06396C1.22656 9.08594 1.20996 9.11279 1.1897 9.14307C1.16357 9.18213 1.13159 9.22656 1.09351 9.27393ZM141.199 28.8999L140.905 29.3003C140.709 29.5 140.316 29.3999 139.728 28.8999L133.055 21.7002L132.368 21L131.682 20.3003L130.406 18.8999L129.719 18.2002L129.032 17.5L127.07 15.3999L125.107 17.5C124.723 17.8135 124.037 17.021 123.144 15.9897L122.842 15.6421C122.686 15.4644 122.525 15.2822 122.36 15.1001C122.36 14.9404 122.416 14.8657 122.453 14.8159C122.485 14.772 122.504 14.7471 122.458 14.7002L124.617 12.3999L125.303 11.7002L125.99 11L126.481 10.5C126.505 10.4751 126.536 10.4502 126.569 10.4253L126.613 10.394L126.677 10.3501L126.682 10.3472C126.754 10.2979 126.825 10.249 126.874 10.2002C126.885 10.188 126.897 10.1772 126.909 10.168C126.961 10.127 127.013 10.1108 127.065 10.1045C127.099 10.1001 127.134 10.1001 127.168 10.1001C127.214 10.1001 127.26 10.1001 127.305 10.1104C127.335 10.1172 127.365 10.1279 127.396 10.146C127.418 10.1597 127.44 10.1772 127.462 10.2002C127.56 10.3003 127.757 10.3999 127.855 10.5L131.78 14.7002L132.467 15.3999L133.153 16.1001L134.429 17.5L135.116 18.2002L135.803 18.8999L142.475 26.1001C142.77 26.3999 142.966 26.8999 142.77 27.1001C142.729 27.1836 142.67 27.2671 142.617 27.3359L142.582 27.3799L142.545 27.4238C142.504 27.4707 142.475 27.5 142.475 27.5L141.199 28.8999ZM158.077 19.4004L157.782 19.8003L156.507 21.2002C156.507 21.2002 156.471 21.2734 156.399 21.3755C156.352 21.4419 156.29 21.521 156.212 21.6001C156.104 21.7109 156.115 21.9141 156.198 22.124C156.264 22.293 156.375 22.4663 156.507 22.6001L158.371 24.6001H158.273L162.394 29L162.473 29.0825L162.577 29.1938L162.673 29.3003L162.738 29.375L162.769 29.4102L162.777 29.4189L162.781 29.4233C162.891 29.5493 162.971 29.6406 163.028 29.6792C163.038 29.6855 163.047 29.6904 163.055 29.6943C163.064 29.6982 163.073 29.7002 163.081 29.7002C163.081 29.7002 163.187 29.5918 163.336 29.4185C163.435 29.3037 163.552 29.1597 163.67 29L164.749 27.9004C164.897 27.7495 165.045 27.6128 165.172 27.4966L165.177 27.4907C165.3 27.3774 165.402 27.2832 165.466 27.2119C165.509 27.1631 165.534 27.1255 165.534 27.1001C165.534 27 165.436 26.8003 165.338 26.6001L165.436 26.5L159.058 19.7002L158.763 19.4004L158.567 19.2002L158.469 19.3003C158.42 19.3003 158.378 19.3003 158.339 19.3018L158.294 19.3047C158.278 19.3062 158.262 19.3081 158.247 19.3105C158.215 19.3164 158.186 19.3252 158.158 19.3389C158.13 19.3535 158.103 19.373 158.077 19.4004ZM144.928 9.3999C145.026 9.2002 145.222 9 145.222 9L146.498 7.6001L146.792 7.2002C146.989 7 147.381 7.1001 147.774 7.5L153.857 14C153.987 14.1328 154.098 14.3042 154.165 14.4717C154.186 14.5264 154.203 14.5811 154.214 14.6333C154.225 14.6836 154.231 14.7324 154.23 14.7778L154.228 14.8198C154.227 14.833 154.225 14.8457 154.223 14.8584C154.219 14.8774 154.214 14.8955 154.207 14.9126C154.201 14.9292 154.193 14.9448 154.184 14.959C154.175 14.9736 154.164 14.9873 154.152 15C153.956 15.2002 153.857 15.3999 153.857 15.3999L152.582 16.8003L152.287 17.2002C152.091 17.3999 151.699 17.3003 151.306 16.8999L145.222 10.3999C144.928 10.1001 144.732 9.6001 144.928 9.3999ZM120.888 14.0996L119.22 12.3999L115.001 7.8999L114.314 7.19971L114.216 7.09961C114.188 7.07129 114.153 7.05908 114.114 7.06055C114.074 7.06201 114.031 7.07764 113.989 7.10498C113.926 7.146 113.865 7.21338 113.823 7.2998L113.529 7.69971L112.253 9.09961C112.253 9.09961 112.057 9.2998 111.959 9.5C111.763 9.69971 111.959 10.1997 112.253 10.5L115.982 14.5C117.552 16.2998 123.145 22.1997 123.537 22.5996L126.187 25.3999L126.874 26.0996L126.972 26.1997L127.266 26.5C127.266 26.5 127.291 26.5254 127.329 26.5508C127.366 26.5752 127.414 26.5996 127.462 26.5996C127.659 26.6997 127.855 26.6997 127.953 26.5L128.247 26.0996L131.485 22.5996C131.878 22.1997 131.976 21.7998 131.78 21.5996L131.485 21.1997L130.21 19.7998L130.197 19.7764L130.178 19.7417C130.16 19.7114 130.135 19.6709 130.102 19.6245C130.055 19.5581 129.993 19.479 129.916 19.3999C129.719 19.1997 129.327 19.3999 128.934 19.6997L127.659 21.0996L126.383 19.6997L125.696 19C125.402 19 122.752 16.0996 120.888 14.0996ZM87.0354 27.6001L85.7598 29L85.2693 29.3003C85.2507 29.3188 85.2302 29.335 85.2085 29.3486L85.1792 29.3647L85.1511 29.3765C85.1382 29.3813 85.125 29.3857 85.1116 29.3892C85.0598 29.4019 85.0024 29.4038 84.9409 29.395C84.75 29.3672 84.519 29.2358 84.2881 29L77.6157 21.8003L76.9287 21.1001L76.2419 20.4004L74.9663 19L74.2793 18.3003L73.5925 17.6001L71.6301 15.5L69.6677 17.6001C69.2837 17.9131 68.5996 17.124 67.7092 16.0957L67.7063 16.0928L67.7041 16.0898C67.4578 15.8057 67.1958 15.5029 66.9202 15.2002C66.9202 15.0405 66.9758 14.9658 67.0129 14.916C67.0457 14.8721 67.0642 14.8472 67.0183 14.8003L69.177 12.5L69.8638 11.8003L70.5508 11.1001L71.0413 10.6001C71.0903 10.5498 71.1641 10.5 71.2375 10.4502C71.2825 10.4199 71.3274 10.3896 71.3667 10.3589C71.3918 10.3394 71.4148 10.3198 71.4338 10.3003C71.4602 10.2734 71.4866 10.2539 71.5129 10.2397C71.5576 10.2153 71.6023 10.2061 71.647 10.2021L71.6821 10.2007L71.7283 10.2002C71.8264 10.2002 71.9246 10.2002 72.0225 10.3003C72.0715 10.3506 72.145 10.4004 72.2188 10.4502C72.2925 10.5 72.366 10.5498 72.415 10.6001L76.3401 14.8003L77.0269 15.5L77.7136 16.2002L78.9893 17.6001L79.6763 18.3003L80.363 19L87.0354 26.2002C87.2053 26.373 87.3425 26.6128 87.3904 26.8232C87.4255 26.9775 87.4128 27.1157 87.3298 27.2002C87.2317 27.4004 87.0354 27.6001 87.0354 27.6001ZM20.4097 36.5H22.8628H23.5496H24.2366H28.8484C28.9863 36.5 29.1296 36.4834 29.2734 36.4531C29.4995 36.4053 29.7266 36.3232 29.9346 36.2168C30.0742 36.145 30.2056 36.0625 30.3223 35.9722C30.3926 35.9175 30.4578 35.8599 30.5164 35.8003L32.2827 33.8999L32.9695 33.2002L33.6562 32.5L34.9319 31.1001L35.6189 30.3999L36.3057 29.7002L43.6648 21.8003L44.3518 21.1001L45.0386 20.3999L46.3142 19L47.001 18.3003L47.688 17.6001L60.0515 4.30029C60.4441 3.8999 61.1309 3.6001 61.7195 3.6001H75.9475H76.2419H82.3254L82.4011 3.60156C82.4351 3.60303 82.4692 3.60547 82.5037 3.60889C82.5764 3.61621 82.6501 3.62695 82.7239 3.6416C82.9116 3.67871 83.1003 3.74023 83.2791 3.81982C83.3796 3.86475 83.4771 3.91553 83.5691 3.97119C83.7302 4.06787 83.8752 4.17969 83.9937 4.30029L84.4841 4.8999C84.8767 5.30029 85.2693 5.3999 85.4653 5.2002L85.7598 4.80029L87.0354 3.3999L87.3298 3.1001C87.5261 2.8999 87.3298 2.3999 87.0354 2.1001L85.8579 0.800293C85.4653 0.399902 84.7786 0.100098 84.1899 0.100098H73.887H62.0139H59.5608H59.4626C58.874 0.100098 58.1873 0.399902 57.7947 0.800293L56.0283 2.7002L55.3416 3.3999L54.6548 4.1001L53.3792 5.5L52.6921 6.2002L52.0054 6.8999L46.1179 13.2002L46.2161 13.3003L44.7441 14.8003L44.0574 15.5L43.3706 16.2002L42.095 17.6001L41.408 18.3003L40.7212 19L33.3621 26.8999L32.675 27.6001L31.9883 28.3003L30.7126 29.7002L30.0256 30.3999L29.3389 31.1001L28.1614 32.3003C27.769 32.7002 27.082 33 26.4934 33H20.606H20.5078H20.3069H18.2524H16.1904H11.7749H11.6768H5.69116C5.58228 33 5.47021 32.9897 5.35718 32.9702C5.2356 32.9497 5.11304 32.9185 4.99268 32.8789C4.6189 32.7554 4.26514 32.5469 4.02319 32.3003L3.33618 31.6001L3.04175 31.3003C2.98804 31.1909 2.87598 31.1714 2.75317 31.2085C2.65137 31.2393 2.54224 31.3091 2.45312 31.3999L2.15869 31.8003L0.883057 33.2002C0.883057 33.2002 0.84375 33.2803 0.765381 33.3896C0.719727 33.4531 0.660889 33.5264 0.588867 33.6001C0.392578 33.8003 0.588867 34.3003 0.883057 34.6001L2.06055 35.8999L2.74756 36.6001H8.34058H9.02734H9.71411H19.0359L20.1152 36.5H20.4097ZM75.751 36.5H74.7698V36.7002H73.6904H65.252H64.5649H63.8782H59.3645H58.2852L57.5981 36L56.4207 34.7002C56.1265 34.3999 55.9302 33.8999 56.1265 33.7002C56.2073 33.6177 56.2715 33.5356 56.3188 33.4673C56.3359 33.4429 56.3508 33.4199 56.3635 33.3999L56.3877 33.3604C56.4097 33.3228 56.4207 33.3003 56.4207 33.3003L57.6963 31.8999L57.9907 31.5C58.187 31.3003 58.4812 31.2002 58.5793 31.3999L58.7756 31.6001V31.5L59.5608 32.3003C59.855 32.7002 60.542 33 61.1306 33H67.1162C67.1162 32.9707 67.1245 32.9502 67.1365 32.9355C67.144 32.9263 67.1531 32.9194 67.1621 32.9141C67.1726 32.9082 67.1836 32.9048 67.1926 32.9028C67.2053 32.8999 67.2144 32.8999 67.2144 32.8999H67.3125H71.5317H75.751H75.8491C75.8491 32.8999 75.8491 32.9365 75.8708 32.9653C75.885 32.9844 75.9084 33 75.9473 33H81.9329C82.5215 33 83.2085 32.7002 83.6008 32.3003L84.7783 31.1001L85.4653 30.3999L86.1521 29.7002L87.4277 28.3003L88.1145 27.6001L88.8015 26.8999L96.1606 19L96.8477 18.3003L97.5344 17.6001L98.8101 16.2002L99.4968 15.5L100.184 14.8003L113.234 0.800293C113.441 0.589355 113.729 0.406738 114.042 0.280762C114.323 0.16748 114.624 0.100098 114.902 0.100098H117.453H119.612H119.71H129.326H134.232H139.826C140.414 0.100098 141.101 0.399902 141.494 0.800293L142.671 2.1001C142.819 2.25049 142.942 2.45117 143.003 2.63867C143.043 2.76123 143.056 2.87891 143.033 2.97314C143.021 3.02246 142.999 3.06592 142.966 3.1001L142.671 3.3999L141.396 4.80029L141.101 5.2002C141 5.30371 140.845 5.32666 140.665 5.26904C140.498 5.21582 140.309 5.09277 140.12 4.8999L139.629 4.30029C139.237 3.8999 138.55 3.6001 137.961 3.6001H131.878H131.583H117.257C117.188 3.6001 117.116 3.60449 117.045 3.6123C116.875 3.63135 116.701 3.67236 116.532 3.73047C116.168 3.85498 115.825 4.05957 115.589 4.30029L115.491 4.5L114.804 5.2002L114.608 5.3999L114.412 5.6001L113.725 6.30029L113.038 7L111.762 8.3999L111.075 9.1001L110.389 9.80029L103.716 17C103.667 17 103.643 17.0249 103.618 17.0498C103.594 17.0747 103.569 17.1001 103.52 17.1001L103.029 17.6001L102.343 18.3003L101.656 19L100.38 20.3999L99.6931 21.1001L99.0063 21.8003L98.5156 22.3003C98.5156 22.3628 98.4768 22.3862 98.448 22.4199C98.4309 22.4395 98.4175 22.4629 98.4175 22.5L95.0813 26.1001C94.9832 26.1001 94.9832 26.2002 94.885 26.2002L91.647 29.7002L90.9602 30.3999L90.2732 31.1001L88.9976 32.5L88.3108 33.2002L87.624 33.8999L85.8577 35.8003C85.6658 35.9961 85.4031 36.1675 85.116 36.292C84.8164 36.4219 84.4902 36.5 84.1897 36.5H79.5779H78.8909H78.2041H75.751ZM89.4937 9.28418C89.4629 9.32178 89.4285 9.36084 89.3904 9.3999C89.2827 9.50977 89.2932 9.70996 89.3733 9.91797C89.439 10.0889 89.5518 10.2646 89.6846 10.3999L95.7683 16.8999C96.1609 17.3003 96.5532 17.3999 96.7495 17.2002L97.0439 16.8003L98.3196 15.3999C98.3196 15.3999 98.3389 15.3799 98.3687 15.3467C98.3909 15.3218 98.4189 15.2891 98.449 15.2515L98.4924 15.1948L98.53 15.1421C98.5481 15.1157 98.5654 15.0879 98.5815 15.0601L98.6001 15.0264L98.6138 15C98.8101 14.8003 98.6138 14.3003 98.3196 14L92.2358 7.5C91.8433 7.1001 91.4509 7 91.2546 7.2002L90.9602 7.6001L89.6846 9L89.6677 9.03174L89.6455 9.06982C89.6279 9.09912 89.6042 9.13623 89.5747 9.17822C89.5515 9.21094 89.5244 9.24707 89.4937 9.28418ZM109.996 2.8999C109.702 3.30029 109.309 3.6001 109.113 3.6001C108.991 3.6001 108.907 3.6001 108.838 3.62402C108.814 3.63232 108.792 3.64355 108.77 3.6582C108.753 3.66992 108.737 3.68359 108.721 3.7002H94.3945C93.8059 3.7002 93.1191 4 92.7266 4.3999L91.5491 5.6001L90.8623 6.30029L90.1753 7L88.8997 8.3999L88.2129 9.1001L87.5259 9.80029L80.8535 17C80.4612 17.3003 80.0686 17.5 79.8723 17.3003C79.676 17.1001 79.5779 16.8999 79.5779 16.8999L78.3025 15.5L78.0081 15.1001C77.8787 14.9683 77.8772 14.7495 78.0037 14.501C78.0691 14.3726 78.1687 14.2363 78.3025 14.1001L84.9749 6.8999L85.6616 6.2002L86.3486 5.5L87.624 4.1001L88.311 3.3999L88.9978 2.7002L90.7642 0.800293C90.9597 0.600586 91.2288 0.425781 91.5222 0.300781C91.6672 0.239258 91.8184 0.189453 91.9695 0.155273C92.0317 0.141113 92.094 0.129395 92.1558 0.120605C92.2493 0.106934 92.3418 0.100098 92.4321 0.100098H107.74H108.721H111.566C112.155 0.100098 112.351 0.399902 112.057 0.700195L111.468 1.30029L109.996 2.8999ZM65.3501 14.0996L63.6819 12.3999L59.4626 7.8999L58.7756 7.19971C58.7756 7.19971 58.6777 7.19971 58.6777 7.09961C58.5796 7 58.3833 7.09961 58.2852 7.2998L57.9907 7.69971L56.7151 9.09961C56.7151 9.09961 56.6868 9.15723 56.6301 9.2417L56.5906 9.29883C56.5459 9.36035 56.4893 9.43018 56.4209 9.5C56.3799 9.5415 56.356 9.59619 56.3464 9.65967C56.3108 9.8999 56.4824 10.2622 56.7151 10.5L60.4438 14.5C61.9158 16.2998 67.6069 22.1997 67.9993 22.5996L70.6487 25.3999L71.3354 26.0996L71.4336 26.1997L71.728 26.5C71.728 26.5 71.77 26.5425 71.8267 26.5718C71.8564 26.5874 71.8904 26.5996 71.9243 26.5996C72.1206 26.6997 72.3169 26.6997 72.4148 26.5L72.7092 26.0996L75.9473 22.5996C76.0662 22.4785 76.158 22.3574 76.2229 22.2422C76.3723 21.9761 76.3787 21.7393 76.2417 21.5996L75.9473 21.1997L74.6716 19.7998C74.6716 19.7998 74.6084 19.7354 74.5356 19.6431C74.4805 19.5728 74.4199 19.4863 74.3774 19.3999C74.2524 19.2725 74.0481 19.3071 73.8152 19.4268C73.6819 19.4951 73.5391 19.5908 73.3962 19.6997L72.1206 21.0996L70.845 19.6997L70.158 19C69.9023 19 67.8687 16.8105 66.1169 14.9243L65.3501 14.0996ZM30.3201 28.8999L30.0259 29.3003C29.8296 29.5 29.3389 29.3999 28.8484 28.8999L22.176 21.7002L21.489 21L20.8022 20.3003L19.5266 18.8999L18.8396 18.2002L18.1528 17.5L16.1904 15.3999L14.228 17.5C14.0957 17.6079 13.928 17.585 13.7283 17.4663C13.6328 17.4097 13.5303 17.3311 13.4207 17.2349C13.0928 16.9463 12.7036 16.4971 12.2644 15.9897L12.2402 15.9619C12.001 15.686 11.7471 15.3931 11.4805 15.1001C11.4805 14.9868 11.5083 14.9165 11.5378 14.8672C11.5503 14.8462 11.5632 14.8291 11.5745 14.8145C11.5901 14.7935 11.6023 14.7769 11.6055 14.7598C11.6086 14.7422 11.6018 14.7241 11.5786 14.7002L13.7373 12.3999L14.4241 11.7002L15.1111 11L15.6016 10.5C15.6997 10.3999 15.896 10.3003 15.9941 10.2002C16.0168 10.1772 16.0396 10.1592 16.0623 10.146C16.0742 10.1387 16.0862 10.1323 16.0981 10.1274C16.1099 10.1226 16.1216 10.1187 16.1333 10.1152C16.1455 10.1118 16.1577 10.1089 16.1699 10.1069C16.2095 10.1001 16.249 10.1001 16.2886 10.1001C16.3867 10.1001 16.4849 10.1001 16.5828 10.2002C16.6299 10.248 16.7002 10.2959 16.771 10.3442L16.7791 10.3501L16.7871 10.356L16.7922 10.3589L16.8694 10.4121L16.9197 10.4502L16.9424 10.4692C16.9543 10.4795 16.9653 10.4897 16.9753 10.5L20.9004 14.7002L21.5872 15.3999L22.2739 16.1001L23.5496 17.5L24.2366 18.2002L24.9233 18.8999L31.5957 26.1001C31.8901 26.3999 32.0864 26.8999 31.8901 27.1001C31.8518 27.1392 31.8174 27.1782 31.7866 27.2158C31.7588 27.2495 31.7339 27.2822 31.7122 27.3125C31.6345 27.4209 31.5957 27.5 31.5957 27.5L30.3201 28.8999ZM47.0994 19.4004L46.8049 19.8003L45.5293 21.2002C45.5293 21.2002 45.333 21.4004 45.2351 21.6001C45.1028 21.7349 45.1489 22.0059 45.283 22.2603C45.3479 22.3833 45.4333 22.5024 45.5293 22.6001L47.3938 24.6001H47.2957L51.4167 29L52.1035 29.7002C52.1035 29.7002 52.3979 29.4004 52.6924 29C52.7856 28.8735 52.8884 28.7568 52.998 28.644C53.2351 28.4004 53.5034 28.1738 53.7717 27.9004C53.9197 27.7495 54.0676 27.6128 54.1943 27.4966L54.2002 27.4907L54.2134 27.479L54.3 27.3989C54.3457 27.356 54.387 27.3169 54.4224 27.2812C54.4478 27.2563 54.47 27.2334 54.4888 27.2124C54.502 27.1973 54.5137 27.1831 54.5232 27.1699C54.5447 27.1411 54.5566 27.1177 54.5566 27.1001C54.5566 27.0542 54.5361 26.9878 54.5044 26.9097C54.4834 26.8584 54.4575 26.8018 54.4294 26.7427L54.3604 26.6001L54.4585 26.5L48.0806 19.7002L47.7861 19.4004L47.5901 19.2002L47.4919 19.3003C47.2957 19.3003 47.1975 19.3003 47.0994 19.4004ZM33.9509 9.40039C34.147 9.2002 34.2451 9 34.2451 9L35.5208 7.7002L35.8152 7.30029C36.0115 7.1001 36.4038 7.2002 36.7964 7.6001L42.8801 14.1001C43.1743 14.4004 43.3706 14.9004 43.1743 15.1001C43.1648 15.1196 43.1541 15.1392 43.1428 15.1587C43.1306 15.1797 43.1174 15.2007 43.104 15.2212C43.0833 15.2529 43.0615 15.2837 43.0398 15.3125C42.9578 15.4209 42.8801 15.5 42.8801 15.5L41.6045 16.8003L41.3101 17.2002C41.1904 17.3223 40.998 17.3325 40.7771 17.2314C40.6936 17.1934 40.6062 17.1396 40.5171 17.0698C40.4548 17.021 40.3918 16.9644 40.3289 16.9004L34.2451 10.4004C34.0935 10.2456 33.968 10.0381 33.9087 9.8457C33.8711 9.72363 33.8601 9.60791 33.886 9.51611C33.8987 9.47119 33.9199 9.43213 33.9509 9.40039ZM35.4226 0.799805L33.6562 2.7002L32.9695 3.3999L32.2825 4.1001L31.0071 5.5L30.3201 6.2002L29.6333 6.8999L22.9609 14.1001C22.5684 14.5 22.4702 14.8999 22.6665 15.1001L22.9609 15.5L24.2366 16.8999C24.2366 16.8999 24.4326 17.1001 24.5308 17.2998C24.5859 17.356 24.6567 17.3809 24.7385 17.3804C24.8069 17.3799 24.8833 17.3623 24.9651 17.3311C25.0759 17.2886 25.1963 17.2207 25.3201 17.1382C25.3835 17.0957 25.4478 17.0493 25.512 17L32.1846 9.7998L32.8713 9.1001L33.5581 8.3999L34.8337 7L35.5208 6.2998L36.2075 5.6001L37.385 4.3999C37.5962 4.18506 37.8921 3.99902 38.2122 3.87256C38.4875 3.76416 38.7808 3.7002 39.053 3.7002H49.356H49.8755H50.3372H53.4773H53.7715C53.9678 3.7002 54.3604 3.3999 54.6548 3L56.1265 1.3999L56.7153 0.799805C57.0098 0.5 56.8135 0.200195 56.2246 0.200195H53.3792H52.3979H51.3186H51.2205H40.8193H37.0906C36.6267 0.121094 36.0405 0.291016 35.6689 0.5625C35.5691 0.635254 35.4849 0.715332 35.4226 0.799805ZM36.8943 31.6997L37.385 32.2998C37.6792 32.6997 38.4644 33 39.1511 33H43.4685H43.5667H49.356C49.5767 33 49.8113 32.9575 50.0388 32.8838C50.4185 32.7607 50.7788 32.5498 51.0242 32.2998L52.2014 31.1001L52.8884 30.3999L53.5752 29.6997L54.8508 28.2998L55.5378 27.6001L56.2246 26.8999L63.5837 19L63.6819 18.8999C63.9763 18.6001 66.4294 21.3999 66.2332 21.7998L62.4062 25.8999C62.2991 26.0454 62.1919 26.1777 62.0989 26.2871C61.9368 26.4785 61.8176 26.6001 61.8176 26.6001L61.1309 27.2998L58.874 29.7998L58.187 30.5L57.5002 31.1997L56.2246 32.6001L55.5378 33.2998L54.8508 34L53.0847 35.8999C52.6921 36.2998 52.0054 36.6001 51.4165 36.6001H48.571H43.8611H37.1887C36.5999 36.6001 35.9131 36.2998 35.5205 35.8999L34.343 34.6001C34.2419 34.4971 34.1523 34.3701 34.0862 34.2402C33.9602 33.9917 33.9199 33.731 34.0488 33.6001C34.2449 33.3999 34.343 33.1997 34.343 33.1997L35.6187 31.7998L35.9131 31.3999C35.9429 31.3696 35.9771 31.3462 36.0151 31.3296C36.1277 31.2808 36.2739 31.292 36.4358 31.3638C36.5803 31.4277 36.7373 31.5396 36.8943 31.6997Z" fill="#48888D"/>
</svg>
